<svg xmlns="http://www.w3.org/2000/svg" xmlns:xlink="http://www.w3.org/1999/xlink" width="1490" height="779.85"><rect width="1490" height="779.85" rx="0" ry="0" class="a"/><svg height="759.85" viewBox="0 0 147 75.985" width="1470" x="10" xmlns="http://www.w3.org/2000/svg" xmlns:xlink="http://www.w3.org/1999/xlink" y="10"><style>@keyframes n{0%{transform:translateX(0)}.6%{transform:translateX(-147px)}9.2%{transform:translateX(-294px)}10.7%{transform:translateX(-441px)}11.5%{transform:translateX(-588px)}12.2%{transform:translateX(-735px)}13%{transform:translateX(-882px)}13.8%{transform:translateX(-1029px)}14.6%{transform:translateX(-1176px)}15.4%{transform:translateX(-1323px)}16.1%{transform:translateX(-1470px)}16.9%{transform:translateX(-1617px)}17.7%{transform:translateX(-1764px)}18.5%{transform:translateX(-1911px)}19.2%{transform:translateX(-2058px)}20%{transform:translateX(-2205px)}21.5%{transform:translateX(-2352px)}25.8%{transform:translateX(-2499px)}28%{transform:translateX(-2646px)}28.3%{transform:translateX(-2793px)}28.4%{transform:translateX(-2940px)}37%{transform:translateX(-3087px)}38.5%{transform:translateX(-3234px)}39.3%{transform:translateX(-3381px)}40.1%{transform:translateX(-3528px)}40.9%{transform:translateX(-3675px)}41.6%{transform:translateX(-3822px)}42.4%{transform:translateX(-3969px)}43.2%{transform:translateX(-4116px)}44%{transform:translateX(-4263px)}44.8%{transform:translateX(-4410px)}45.5%{transform:translateX(-4557px)}46.3%{transform:translateX(-4704px)}47.1%{transform:translateX(-4851px)}47.8%{transform:translateX(-4998px)}48.6%{transform:translateX(-5145px)}49.4%{transform:translateX(-5292px)}51%{transform:translateX(-5439px)}51.7%{transform:translateX(-5586px)}52.5%{transform:translateX(-5733px)}53.3%{transform:translateX(-5880px)}54.1%{transform:translateX(-6027px)}54.8%{transform:translateX(-6174px)}55.6%{transform:translateX(-6321px)}56.4%{transform:translateX(-6468px)}57.1%{transform:translateX(-6615px)}57.9%{transform:translateX(-6762px)}58.7%{transform:translateX(-6909px)}59.4%{transform:translateX(-7056px)}60.2%{transform:translateX(-7203px)}61.8%{transform:translateX(-7350px)}62.5%{transform:translateX(-7497px)}63.3%{transform:translateX(-7644px)}64.1%{transform:translateX(-7791px)}64.9%{transform:translateX(-7938px)}65.7%{transform:translateX(-8085px)}66.4%{transform:translateX(-8232px)}67.2%{transform:translateX(-8379px)}68%{transform:translateX(-8526px)}72.3%{transform:translateX(-8673px)}74.5%{transform:translateX(-8820px)}74.6%{transform:translateX(-9408px)}74.9%{transform:translateX(-9555px)}75%{transform:translateX(-9702px)}to{transform:translateX(-9849px)}}.a{fill:#282d35}.c,.d{fill:#b9c0cb;white-space:pre}.d{fill:#71bef2;font-weight:700}.f,.g{fill:#a8cc8c}.f{white-space:pre}.g{font-weight:700}.g,.i,.j,.k{white-space:pre}.i{fill:#b9c0cb;font-weight:700}.j,.k{fill:#dbab79}.k{fill:#e88388}</style><g font-family="Monaco,Consolas,Menlo,'Bitstream Vera Sans Mono','Powerline Symbols',monospace" font-size="1.67"><defs><symbol id="1"><text y="1.67" class="c">▶</text></symbol><symbol id="2"><text y="1.67" class="c">▶</text><text x="2.004" y="1.67" class="c">h</text></symbol><symbol id="3"><text y="1.67" class="c">▶</text><text x="2.004" y="1.67" class="c">he</text></symbol><symbol id="4"><text y="1.67" class="c">▶</text><text x="2.004" y="1.67" class="c">hel</text></symbol><symbol id="5"><text y="1.67" class="c">▶</text><text x="2.004" y="1.67" class="c">helm</text></symbol><symbol id="6"><text y="1.67" class="c">▶</text><text x="2.004" y="1.67" class="c">helm-i</text></symbol><symbol id="7"><text y="1.67" class="c">▶</text><text x="2.004" y="1.67" class="c">helm-im</text></symbol><symbol id="8"><text y="1.67" class="c">▶</text><text x="2.004" y="1.67" class="c">helm-imp</text></symbol><symbol id="9"><text y="1.67" class="c">▶</text><text x="2.004" y="1.67" class="c">helm-impa</text></symbol><symbol id="10"><text y="1.67" class="c">▶</text><text x="2.004" y="1.67" class="c">helm-impac</text></symbol><symbol id="11"><text y="1.67" class="c">▶</text><text x="2.004" y="1.67" class="c">helm-impact</text></symbol><symbol id="12"><text y="1.67" class="c">▶</text><text x="2.004" y="1.67" class="c">helm-impact</text><text x="14.028" y="1.67" class="c">--help</text></symbol><symbol id="13"><text y="1.67" class="d">usage:</text><text x="7.014" y="1.67" style="white-space:pre" fill="#d290e4" font-weight="700">helm-impact</text><text x="19.038" y="1.67" class="c">[</text><text x="20.04" y="1.67" class="f">-h</text><text x="22.044" y="1.67" class="c">]</text><text x="24.048" y="1.67" class="f">old_manifest</text><text x="37.074" y="1.67" class="f">new_manifest</text></symbol><symbol id="14"><text y="1.67" class="c">Analyze</text><text x="8.016" y="1.67" class="c">Helm</text><text x="13.026" y="1.67" class="c">manifest</text><text x="22.044" y="1.67" class="c">changes</text></symbol><symbol id="15"><text y="1.67" class="d">positional</text><text x="11.022" y="1.67" class="d">arguments:</text></symbol><symbol id="16"><text x="2.004" y="1.67" class="g">old_manifest</text><text x="16.032" y="1.67" class="c">Path</text><text x="21.042" y="1.67" class="c">to</text><text x="24.048" y="1.67" class="c">the</text><text x="28.056" y="1.67" class="c">old</text><text x="32.064" y="1.67" class="c">manifest</text><text x="41.082" y="1.67" class="c">YAML</text><text x="46.092" y="1.67" class="c">file</text></symbol><symbol id="17"><text x="2.004" y="1.67" class="g">new_manifest</text><text x="16.032" y="1.67" class="c">Path</text><text x="21.042" y="1.67" class="c">to</text><text x="24.048" y="1.67" class="c">the</text><text x="28.056" y="1.67" class="c">new</text><text x="32.064" y="1.67" class="c">manifest</text><text x="41.082" y="1.67" class="c">YAML</text><text x="46.092" y="1.67" class="c">file</text></symbol><symbol id="18"><text y="1.67" class="d">options:</text></symbol><symbol id="19"><text x="2.004" y="1.67" class="g">-h</text><text x="4.008" y="1.67" class="c">,</text><text x="6.012" y="1.67" style="white-space:pre" fill="#66c2cd" font-weight="700">--help</text><text x="16.032" y="1.67" class="c">show</text><text x="21.042" y="1.67" class="c">this</text><text x="26.052" y="1.67" class="c">help</text><text x="31.062" y="1.67" class="c">message</text><text x="39.078" y="1.67" class="c">and</text><text x="43.086" y="1.67" class="c">exit</text></symbol><symbol id="20"><text y="1.67" class="c">▶</text><text x="2.004" y="1.67" class="c">helm-impact</text><text x="14.028" y="1.67" class="c">examples/v1.yaml</text><text x="31.062" y="1.67" class="c">examples/v2.yaml</text></symbol><symbol id="21"><text y="1.67" class="c">┏━━━━━━━━━━━━━━━━━━━┳━━━━━━━━━━━━━━━━━━━━━━━━━━━━━━━┳━━━━━━━━━━┳━━━━━━━━━━━━━━━━━┳━━━━━━━━━━━━━━━━━━━━━━━━━━━━━━━┳━━━━━━━━━━━━━━━━━━━━━━━━━━━━━━━━┓</text></symbol><symbol id="22"><text y="1.67" class="c">┃</text><text x="2.004" y="1.67" class="i">Resource</text><text x="20.04" y="1.67" class="c">┃</text><text x="22.044" y="1.67" class="i">Field</text><text x="52.104" y="1.67" class="c">┃</text><text x="54.108" y="1.67" class="i">Severity</text><text x="63.126" y="1.67" class="c">┃</text><text x="65.13" y="1.67" class="i">Impact</text><text x="81.162" y="1.67" class="c">┃</text><text x="83.166" y="1.67" class="i">Description</text><text x="113.226" y="1.67" class="c">┃</text><text x="115.23" y="1.67" class="i">Remediation</text><text x="146.292" y="1.67" class="c">┃</text></symbol><symbol id="23"><text y="1.67" class="c">┡━━━━━━━━━━━━━━━━━━━╇━━━━━━━━━━━━━━━━━━━━━━━━━━━━━━━╇━━━━━━━━━━╇━━━━━━━━━━━━━━━━━╇━━━━━━━━━━━━━━━━━━━━━━━━━━━━━━━╇━━━━━━━━━━━━━━━━━━━━━━━━━━━━━━━━┩</text></symbol><symbol id="24"><text y="1.67" class="c">│</text><text x="2.004" y="1.67" class="c">Deployment/my-app</text><text x="20.04" y="1.67" class="c">│</text><text x="22.044" y="1.67" class="c">spec.template.spec.containers</text><text x="52.104" y="1.67" class="c">│</text><text x="54.108" y="1.67" class="j">WARNING</text><text x="63.126" y="1.67" class="c">│</text><text x="65.13" y="1.67" class="c">ROLLING_RESTART</text><text x="81.162" y="1.67" class="c">│</text><text x="83.166" y="1.67" class="c">Changing</text><text x="92.184" y="1.67" class="c">container</text><text x="102.204" y="1.67" class="c">image</text><text x="108.216" y="1.67" class="c">from</text><text x="113.226" y="1.67" class="c">│</text><text x="115.23" y="1.67" class="c">This</text><text x="120.24" y="1.67" class="c">will</text><text x="125.25" y="1.67" class="c">trigger</text><text x="133.266" y="1.67" class="c">a</text><text x="135.27" y="1.67" class="c">rolling</text><text x="146.292" y="1.67" class="c">│</text></symbol><symbol id="25"><text y="1.67" class="c">│</text><text x="20.04" y="1.67" class="c">│</text><text x="22.044" y="1.67" class="c">.[*].image</text><text x="52.104" y="1.67" class="c">│</text><text x="63.126" y="1.67" class="c">│</text><text x="81.162" y="1.67" class="c">│</text><text x="83.166" y="1.67" class="c">my-app:v1.0.0</text><text x="97.194" y="1.67" class="c">to</text><text x="113.226" y="1.67" class="c">│</text><text x="115.23" y="1.67" class="c">restart.</text><text x="124.248" y="1.67" class="c">Ensure</text><text x="131.262" y="1.67" class="c">that</text><text x="136.272" y="1.67" class="c">the</text><text x="140.28" y="1.67" class="c">new</text><text x="146.292" y="1.67" class="c">│</text></symbol><symbol id="26"><text y="1.67" class="c">│</text><text x="20.04" y="1.67" class="c">│</text><text x="52.104" y="1.67" class="c">│</text><text x="63.126" y="1.67" class="c">│</text><text x="81.162" y="1.67" class="c">│</text><text x="83.166" y="1.67" class="c">my-app:v1.1.0t</text><text x="113.226" y="1.67" class="c">│</text><text x="115.23" y="1.67" class="c">image</text><text x="121.242" y="1.67" class="c">is</text><text x="124.248" y="1.67" class="c">compatible</text><text x="135.27" y="1.67" class="c">and</text><text x="139.278" y="1.67" class="c">has</text><text x="146.292" y="1.67" class="c">│</text></symbol><symbol id="27"><text y="1.67" class="c">│</text><text x="20.04" y="1.67" class="c">│</text><text x="52.104" y="1.67" class="c">│</text><text x="63.126" y="1.67" class="c">│</text><text x="81.162" y="1.67" class="c">│</text><text x="113.226" y="1.67" class="c">│</text><text x="115.23" y="1.67" class="c">been</text><text x="120.24" y="1.67" class="c">tested.</text><text x="146.292" y="1.67" class="c">│</text></symbol><symbol id="28"><text y="1.67" class="c">├───────────────────┼───────────────────────────────┼──────────┼─────────────────┼───────────────────────────────┼────────────────────────────────┤</text></symbol><symbol id="29"><text y="1.67" class="c">│</text><text x="2.004" y="1.67" class="c">Deployment/my-app</text><text x="20.04" y="1.67" class="c">│</text><text x="22.044" y="1.67" class="c">spec.template.spec.containers</text><text x="52.104" y="1.67" class="c">│</text><text x="54.108" y="1.67" class="j">WARNING</text><text x="63.126" y="1.67" class="c">│</text><text x="65.13" y="1.67" class="c">ROLLING_RESTART</text><text x="81.162" y="1.67" class="c">│</text><text x="83.166" y="1.67" class="c">Container</text><text x="93.186" y="1.67" class="c">resource</text><text x="102.204" y="1.67" class="c">memory</text><text x="113.226" y="1.67" class="c">│</text><text x="115.23" y="1.67" class="c">Rolling</text><text x="123.246" y="1.67" class="c">restart</text><text x="131.262" y="1.67" class="c">--</text><text x="134.268" y="1.67" class="c">ensure</text><text x="141.282" y="1.67" class="c">new</text><text x="146.292" y="1.67" class="c">│</text></symbol><symbol id="30"><text y="1.67" class="c">│</text><text x="20.04" y="1.67" class="c">│</text><text x="22.044" y="1.67" class="c">.[*].resources.limits.memory</text><text x="52.104" y="1.67" class="c">│</text><text x="63.126" y="1.67" class="c">│</text><text x="81.162" y="1.67" class="c">│</text><text x="83.166" y="1.67" class="c">limit</text><text x="89.178" y="1.67" class="c">changed</text><text x="97.194" y="1.67" class="c">from</text><text x="102.204" y="1.67" class="c">256Mi</text><text x="108.216" y="1.67" class="c">to</text><text x="113.226" y="1.67" class="c">│</text><text x="115.23" y="1.67" class="c">limits</text><text x="122.244" y="1.67" class="c">are</text><text x="126.252" y="1.67" class="c">within</text><text x="133.266" y="1.67" class="c">node</text><text x="146.292" y="1.67" class="c">│</text></symbol><symbol id="31"><text y="1.67" class="c">│</text><text x="20.04" y="1.67" class="c">│</text><text x="52.104" y="1.67" class="c">│</text><text x="63.126" y="1.67" class="c">│</text><text x="81.162" y="1.67" class="c">│</text><text x="83.166" y="1.67" class="c">512Mi</text><text x="113.226" y="1.67" class="c">│</text><text x="115.23" y="1.67" class="c">capacity</text><text x="146.292" y="1.67" class="c">│</text></symbol><symbol id="32"><text y="1.67" class="c">│</text><text x="2.004" y="1.67" class="c">Deployment/my-app</text><text x="20.04" y="1.67" class="c">│</text><text x="22.044" y="1.67" class="c">spec.replicas</text><text x="52.104" y="1.67" class="c">│</text><text x="54.108" y="1.67" class="f">INFO</text><text x="63.126" y="1.67" class="c">│</text><text x="65.13" y="1.67" class="c">SCALE_EVENT</text><text x="81.162" y="1.67" class="c">│</text><text x="83.166" y="1.67" class="c">Changing</text><text x="92.184" y="1.67" class="c">replicas</text><text x="101.202" y="1.67" class="c">from</text><text x="106.212" y="1.67" class="c">2</text><text x="108.216" y="1.67" class="c">to</text><text x="111.222" y="1.67" class="c">5</text><text x="113.226" y="1.67" class="c">│</text><text x="115.23" y="1.67" class="c">Scale</text><text x="121.242" y="1.67" class="c">up</text><text x="124.248" y="1.67" class="c">--</text><text x="127.254" y="1.67" class="c">ensure</text><text x="134.268" y="1.67" class="c">cluster</text><text x="142.284" y="1.67" class="c">has</text><text x="146.292" y="1.67" class="c">│</text></symbol><symbol id="33"><text y="1.67" class="c">│</text><text x="20.04" y="1.67" class="c">│</text><text x="52.104" y="1.67" class="c">│</text><text x="63.126" y="1.67" class="c">│</text><text x="81.162" y="1.67" class="c">│</text><text x="113.226" y="1.67" class="c">│</text><text x="115.23" y="1.67" class="c">capacity</text><text x="124.248" y="1.67" class="c">for</text><text x="128.256" y="1.67" class="c">additional</text><text x="139.278" y="1.67" class="c">pods.</text><text x="146.292" y="1.67" class="c">│</text></symbol><symbol id="34"><text y="1.67" class="c">│</text><text x="2.004" y="1.67" class="c">Deployment/my-app</text><text x="20.04" y="1.67" class="c">│</text><text x="22.044" y="1.67" class="c">spec.strategy.type</text><text x="52.104" y="1.67" class="c">│</text><text x="54.108" y="1.67" class="k">DANGER</text><text x="63.126" y="1.67" class="c">│</text><text x="65.13" y="1.67" class="c">DOWNTIME</text><text x="81.162" y="1.67" class="c">│</text><text x="83.166" y="1.67" class="c">Deployment</text><text x="94.188" y="1.67" class="c">strategy</text><text x="103.206" y="1.67" class="c">changed</text><text x="113.226" y="1.67" class="c">│</text><text x="115.23" y="1.67" class="c">Recreate</text><text x="124.248" y="1.67" class="c">strategy</text><text x="133.266" y="1.67" class="c">will</text><text x="138.276" y="1.67" class="c">cause</text><text x="146.292" y="1.67" class="c">│</text></symbol><symbol id="35"><text y="1.67" class="c">│</text><text x="20.04" y="1.67" class="c">│</text><text x="52.104" y="1.67" class="c">│</text><text x="63.126" y="1.67" class="c">│</text><text x="81.162" y="1.67" class="c">│</text><text x="83.166" y="1.67" class="c">from</text><text x="88.176" y="1.67" class="c">RollingUpdate</text><text x="102.204" y="1.67" class="c">to</text><text x="113.226" y="1.67" class="c">│</text><text x="115.23" y="1.67" class="c">downtime</text><text x="124.248" y="1.67" class="c">--</text><text x="127.254" y="1.67" class="c">revert</text><text x="134.268" y="1.67" class="c">to</text><text x="146.292" y="1.67" class="c">│</text></symbol><symbol id="36"><text y="1.67" class="c">│</text><text x="20.04" y="1.67" class="c">│</text><text x="52.104" y="1.67" class="c">│</text><text x="63.126" y="1.67" class="c">│</text><text x="81.162" y="1.67" class="c">│</text><text x="83.166" y="1.67" class="c">Recreate</text><text x="113.226" y="1.67" class="c">│</text><text x="115.23" y="1.67" class="c">Rollingupdate</text><text x="129.258" y="1.67" class="c">or</text><text x="132.264" y="1.67" class="c">ensure</text><text x="146.292" y="1.67" class="c">│</text></symbol><symbol id="37"><text y="1.67" class="c">│</text><text x="20.04" y="1.67" class="c">│</text><text x="52.104" y="1.67" class="c">│</text><text x="63.126" y="1.67" class="c">│</text><text x="81.162" y="1.67" class="c">│</text><text x="113.226" y="1.67" class="c">│</text><text x="115.23" y="1.67" class="c">downtime</text><text x="124.248" y="1.67" class="c">is</text><text x="127.254" y="1.67" class="c">acceptable.</text><text x="146.292" y="1.67" class="c">│</text></symbol><symbol id="38"><text y="1.67" class="c">└───────────────────┴───────────────────────────────┴──────────┴─────────────────┴───────────────────────────────┴────────────────────────────────┘</text></symbol><symbol id="a"><path fill="transparent" d="M0 0h147v35H0z"/></symbol><symbol id="b"><path fill="#6f7683" d="M0 0h1.102v2.171H0z"/></symbol></defs><path class="a" d="M0 0h147v75.985H0z"/><g style="animation-duration:12.056836s;animation-iteration-count:infinite;animation-name:n;animation-timing-function:steps(1,end)"><svg width="9996"><svg><use xlink:href="#a"/><use xlink:href="#b" x="-.004"/></svg><svg x="147"><use xlink:href="#a"/><use xlink:href="#b" x="1.996"/><use xlink:href="#1"/></svg><svg x="294"><use xlink:href="#a"/><use xlink:href="#b" x="2.996"/><use xlink:href="#2"/></svg><svg x="441"><use xlink:href="#a"/><use xlink:href="#b" x="3.996"/><use xlink:href="#3"/></svg><svg x="588"><use xlink:href="#a"/><use xlink:href="#b" x="4.996"/><use xlink:href="#4"/></svg><svg x="735"><use xlink:href="#a"/><use xlink:href="#b" x="5.996"/><use xlink:href="#5"/></svg><svg x="882"><use xlink:href="#a"/><use xlink:href="#b" x="7.996"/><use xlink:href="#6"/></svg><svg x="1029"><use xlink:href="#a"/><use xlink:href="#b" x="8.996"/><use xlink:href="#7"/></svg><svg x="1176"><use xlink:href="#a"/><use xlink:href="#b" x="9.996"/><use xlink:href="#8"/></svg><svg x="1323"><use xlink:href="#a"/><use xlink:href="#b" x="10.996"/><use xlink:href="#9"/></svg><svg x="1470"><use xlink:href="#a"/><use xlink:href="#b" x="11.996"/><use xlink:href="#10"/></svg><svg x="1617"><use xlink:href="#a"/><use xlink:href="#b" x="13.996"/><use xlink:href="#11"/></svg><svg x="1764"><use xlink:href="#a"/><use xlink:href="#b" x="14.996"/><text y="1.67" class="c">▶</text><text x="2.004" y="1.67" class="c">helm-impact</text><text x="14.028" y="1.67" class="c">-</text></svg><svg x="1911"><use xlink:href="#a"/><use xlink:href="#b" x="15.996"/><text y="1.67" class="c">▶</text><text x="2.004" y="1.67" class="c">helm-impact</text><text x="14.028" y="1.67" class="c">--</text></svg><svg x="2058"><use xlink:href="#a"/><use xlink:href="#b" x="16.996"/><text y="1.67" class="c">▶</text><text x="2.004" y="1.67" class="c">helm-impact</text><text x="14.028" y="1.67" class="c">--h</text></svg><svg x="2205"><use xlink:href="#a"/><use xlink:href="#b" x="17.996"/><text y="1.67" class="c">▶</text><text x="2.004" y="1.67" class="c">helm-impact</text><text x="14.028" y="1.67" class="c">--he</text></svg><svg x="2352"><use xlink:href="#a"/><use xlink:href="#b" x="19.996"/><use xlink:href="#12"/></svg><svg x="2499"><use xlink:href="#a"/><use xlink:href="#b" x="-.004" y="2.146"/><use xlink:href="#12"/></svg><svg x="2646"><use xlink:href="#a"/><use xlink:href="#b" x="-.004" y="23.856"/><use xlink:href="#12"/><use xlink:href="#13" y="2.171"/><use xlink:href="#14" y="6.513"/><use xlink:href="#15" y="10.855"/><use xlink:href="#16" y="13.026"/><use xlink:href="#17" y="15.197"/><use xlink:href="#18" y="19.539"/><use xlink:href="#19" y="21.71"/></svg><svg x="2793"><use xlink:href="#a"/><use xlink:href="#b" x="-.004" y="26.027"/><use xlink:href="#12"/><use xlink:href="#13" y="2.171"/><use xlink:href="#14" y="6.513"/><use xlink:href="#15" y="10.855"/><use xlink:href="#16" y="13.026"/><use xlink:href="#17" y="15.197"/><use xlink:href="#18" y="19.539"/><use xlink:href="#19" y="21.71"/></svg><svg x="2940"><use xlink:href="#a"/><use xlink:href="#b" x="1.996" y="26.027"/><use xlink:href="#12"/><use xlink:href="#13" y="2.171"/><use xlink:href="#14" y="6.513"/><use xlink:href="#15" y="10.855"/><use xlink:href="#16" y="13.026"/><use xlink:href="#17" y="15.197"/><use xlink:href="#18" y="19.539"/><use xlink:href="#19" y="21.71"/><use xlink:href="#1" y="26.052"/></svg><svg x="3087"><use xlink:href="#a"/><use xlink:href="#b" x="2.996" y="26.027"/><use xlink:href="#12"/><use xlink:href="#13" y="2.171"/><use xlink:href="#14" y="6.513"/><use xlink:href="#15" y="10.855"/><use xlink:href="#16" y="13.026"/><use xlink:href="#17" y="15.197"/><use xlink:href="#18" y="19.539"/><use xlink:href="#19" y="21.71"/><use xlink:href="#2" y="26.052"/></svg><svg x="3234"><use xlink:href="#a"/><use xlink:href="#b" x="3.996" y="26.027"/><use xlink:href="#12"/><use xlink:href="#13" y="2.171"/><use xlink:href="#14" y="6.513"/><use xlink:href="#15" y="10.855"/><use xlink:href="#16" y="13.026"/><use xlink:href="#17" y="15.197"/><use xlink:href="#18" y="19.539"/><use xlink:href="#19" y="21.71"/><use xlink:href="#3" y="26.052"/></svg><svg x="3381"><use xlink:href="#a"/><use xlink:href="#b" x="4.996" y="26.027"/><use xlink:href="#12"/><use xlink:href="#13" y="2.171"/><use xlink:href="#14" y="6.513"/><use xlink:href="#15" y="10.855"/><use xlink:href="#16" y="13.026"/><use xlink:href="#17" y="15.197"/><use xlink:href="#18" y="19.539"/><use xlink:href="#19" y="21.71"/><use xlink:href="#4" y="26.052"/></svg><svg x="3528"><use xlink:href="#a"/><use xlink:href="#b" x="5.996" y="26.027"/><use xlink:href="#12"/><use xlink:href="#13" y="2.171"/><use xlink:href="#14" y="6.513"/><use xlink:href="#15" y="10.855"/><use xlink:href="#16" y="13.026"/><use xlink:href="#17" y="15.197"/><use xlink:href="#18" y="19.539"/><use xlink:href="#19" y="21.71"/><use xlink:href="#5" y="26.052"/></svg><svg x="3675"><use xlink:href="#a"/><use xlink:href="#b" x="7.996" y="26.027"/><use xlink:href="#12"/><use xlink:href="#13" y="2.171"/><use xlink:href="#14" y="6.513"/><use xlink:href="#15" y="10.855"/><use xlink:href="#16" y="13.026"/><use xlink:href="#17" y="15.197"/><use xlink:href="#18" y="19.539"/><use xlink:href="#19" y="21.71"/><use xlink:href="#6" y="26.052"/></svg><svg x="3822"><use xlink:href="#a"/><use xlink:href="#b" x="8.996" y="26.027"/><use xlink:href="#12"/><use xlink:href="#13" y="2.171"/><use xlink:href="#14" y="6.513"/><use xlink:href="#15" y="10.855"/><use xlink:href="#16" y="13.026"/><use xlink:href="#17" y="15.197"/><use xlink:href="#18" y="19.539"/><use xlink:href="#19" y="21.71"/><use xlink:href="#7" y="26.052"/></svg><svg x="3969"><use xlink:href="#a"/><use xlink:href="#b" x="9.996" y="26.027"/><use xlink:href="#12"/><use xlink:href="#13" y="2.171"/><use xlink:href="#14" y="6.513"/><use xlink:href="#15" y="10.855"/><use xlink:href="#16" y="13.026"/><use xlink:href="#17" y="15.197"/><use xlink:href="#18" y="19.539"/><use xlink:href="#19" y="21.71"/><use xlink:href="#8" y="26.052"/></svg><svg x="4116"><use xlink:href="#a"/><use xlink:href="#b" x="10.996" y="26.027"/><use xlink:href="#12"/><use xlink:href="#13" y="2.171"/><use xlink:href="#14" y="6.513"/><use xlink:href="#15" y="10.855"/><use xlink:href="#16" y="13.026"/><use xlink:href="#17" y="15.197"/><use xlink:href="#18" y="19.539"/><use xlink:href="#19" y="21.71"/><use xlink:href="#9" y="26.052"/></svg><svg x="4263"><use xlink:href="#a"/><use xlink:href="#b" x="11.996" y="26.027"/><use xlink:href="#12"/><use xlink:href="#13" y="2.171"/><use xlink:href="#14" y="6.513"/><use xlink:href="#15" y="10.855"/><use xlink:href="#16" y="13.026"/><use xlink:href="#17" y="15.197"/><use xlink:href="#18" y="19.539"/><use xlink:href="#19" y="21.71"/><use xlink:href="#10" y="26.052"/></svg><svg x="4410"><use xlink:href="#a"/><use xlink:href="#b" x="13.996" y="26.027"/><use xlink:href="#12"/><use xlink:href="#13" y="2.171"/><use xlink:href="#14" y="6.513"/><use xlink:href="#15" y="10.855"/><use xlink:href="#16" y="13.026"/><use xlink:href="#17" y="15.197"/><use xlink:href="#18" y="19.539"/><use xlink:href="#19" y="21.71"/><use xlink:href="#11" y="26.052"/></svg><svg x="4557"><use xlink:href="#a"/><use xlink:href="#b" x="14.996" y="26.027"/><use xlink:href="#12"/><use xlink:href="#13" y="2.171"/><use xlink:href="#14" y="6.513"/><use xlink:href="#15" y="10.855"/><use xlink:href="#16" y="13.026"/><use xlink:href="#17" y="15.197"/><use xlink:href="#18" y="19.539"/><use xlink:href="#19" y="21.71"/><text y="27.722" class="c">▶</text><text x="2.004" y="27.722" class="c">helm-impact</text><text x="14.028" y="27.722" class="c">e</text></svg><svg x="4704"><use xlink:href="#a"/><use xlink:href="#b" x="15.996" y="26.027"/><use xlink:href="#12"/><use xlink:href="#13" y="2.171"/><use xlink:href="#14" y="6.513"/><use xlink:href="#15" y="10.855"/><use xlink:href="#16" y="13.026"/><use xlink:href="#17" y="15.197"/><use xlink:href="#18" y="19.539"/><use xlink:href="#19" y="21.71"/><text y="27.722" class="c">▶</text><text x="2.004" y="27.722" class="c">helm-impact</text><text x="14.028" y="27.722" class="c">ex</text></svg><svg x="4851"><use xlink:href="#a"/><use xlink:href="#b" x="16.996" y="26.027"/><use xlink:href="#12"/><use xlink:href="#13" y="2.171"/><use xlink:href="#14" y="6.513"/><use xlink:href="#15" y="10.855"/><use xlink:href="#16" y="13.026"/><use xlink:href="#17" y="15.197"/><use xlink:href="#18" y="19.539"/><use xlink:href="#19" y="21.71"/><text y="27.722" class="c">▶</text><text x="2.004" y="27.722" class="c">helm-impact</text><text x="14.028" y="27.722" class="c">exa</text></svg><svg x="4998"><use xlink:href="#a"/><use xlink:href="#b" x="17.996" y="26.027"/><use xlink:href="#12"/><use xlink:href="#13" y="2.171"/><use xlink:href="#14" y="6.513"/><use xlink:href="#15" y="10.855"/><use xlink:href="#16" y="13.026"/><use xlink:href="#17" y="15.197"/><use xlink:href="#18" y="19.539"/><use xlink:href="#19" y="21.71"/><text y="27.722" class="c">▶</text><text x="2.004" y="27.722" class="c">helm-impact</text><text x="14.028" y="27.722" class="c">exam</text></svg><svg x="5145"><use xlink:href="#a"/><use xlink:href="#b" x="19.996" y="26.027"/><use xlink:href="#12"/><use xlink:href="#13" y="2.171"/><use xlink:href="#14" y="6.513"/><use xlink:href="#15" y="10.855"/><use xlink:href="#16" y="13.026"/><use xlink:href="#17" y="15.197"/><use xlink:href="#18" y="19.539"/><use xlink:href="#19" y="21.71"/><text y="27.722" class="c">▶</text><text x="2.004" y="27.722" class="c">helm-impact</text><text x="14.028" y="27.722" class="c">exampl</text></svg><svg x="5292"><use xlink:href="#a"/><use xlink:href="#b" x="20.996" y="26.027"/><use xlink:href="#12"/><use xlink:href="#13" y="2.171"/><use xlink:href="#14" y="6.513"/><use xlink:href="#15" y="10.855"/><use xlink:href="#16" y="13.026"/><use xlink:href="#17" y="15.197"/><use xlink:href="#18" y="19.539"/><use xlink:href="#19" y="21.71"/><text y="27.722" class="c">▶</text><text x="2.004" y="27.722" class="c">helm-impact</text><text x="14.028" y="27.722" class="c">example</text></svg><svg x="5439"><use xlink:href="#a"/><use xlink:href="#b" x="21.996" y="26.027"/><use xlink:href="#12"/><use xlink:href="#13" y="2.171"/><use xlink:href="#14" y="6.513"/><use xlink:href="#15" y="10.855"/><use xlink:href="#16" y="13.026"/><use xlink:href="#17" y="15.197"/><use xlink:href="#18" y="19.539"/><use xlink:href="#19" y="21.71"/><text y="27.722" class="c">▶</text><text x="2.004" y="27.722" class="c">helm-impact</text><text x="14.028" y="27.722" class="c">examples</text></svg><svg x="5586"><use xlink:href="#a"/><use xlink:href="#b" x="22.996" y="26.027"/><use xlink:href="#12"/><use xlink:href="#13" y="2.171"/><use xlink:href="#14" y="6.513"/><use xlink:href="#15" y="10.855"/><use xlink:href="#16" y="13.026"/><use xlink:href="#17" y="15.197"/><use xlink:href="#18" y="19.539"/><use xlink:href="#19" y="21.71"/><text y="27.722" class="c">▶</text><text x="2.004" y="27.722" class="c">helm-impact</text><text x="14.028" y="27.722" class="c">examples/</text></svg><svg x="5733"><use xlink:href="#a"/><use xlink:href="#b" x="23.996" y="26.027"/><use xlink:href="#12"/><use xlink:href="#13" y="2.171"/><use xlink:href="#14" y="6.513"/><use xlink:href="#15" y="10.855"/><use xlink:href="#16" y="13.026"/><use xlink:href="#17" y="15.197"/><use xlink:href="#18" y="19.539"/><use xlink:href="#19" y="21.71"/><text y="27.722" class="c">▶</text><text x="2.004" y="27.722" class="c">helm-impact</text><text x="14.028" y="27.722" class="c">examples/v</text></svg><svg x="5880"><use xlink:href="#a"/><use xlink:href="#b" x="25.996" y="26.027"/><use xlink:href="#12"/><use xlink:href="#13" y="2.171"/><use xlink:href="#14" y="6.513"/><use xlink:href="#15" y="10.855"/><use xlink:href="#16" y="13.026"/><use xlink:href="#17" y="15.197"/><use xlink:href="#18" y="19.539"/><use xlink:href="#19" y="21.71"/><text y="27.722" class="c">▶</text><text x="2.004" y="27.722" class="c">helm-impact</text><text x="14.028" y="27.722" class="c">examples/v1.</text></svg><svg x="6027"><use xlink:href="#a"/><use xlink:href="#b" x="26.996" y="26.027"/><use xlink:href="#12"/><use xlink:href="#13" y="2.171"/><use xlink:href="#14" y="6.513"/><use xlink:href="#15" y="10.855"/><use xlink:href="#16" y="13.026"/><use xlink:href="#17" y="15.197"/><use xlink:href="#18" y="19.539"/><use xlink:href="#19" y="21.71"/><text y="27.722" class="c">▶</text><text x="2.004" y="27.722" class="c">helm-impact</text><text x="14.028" y="27.722" class="c">examples/v1.y</text></svg><svg x="6174"><use xlink:href="#a"/><use xlink:href="#b" x="27.996" y="26.027"/><use xlink:href="#12"/><use xlink:href="#13" y="2.171"/><use xlink:href="#14" y="6.513"/><use xlink:href="#15" y="10.855"/><use xlink:href="#16" y="13.026"/><use xlink:href="#17" y="15.197"/><use xlink:href="#18" y="19.539"/><use xlink:href="#19" y="21.71"/><text y="27.722" class="c">▶</text><text x="2.004" y="27.722" class="c">helm-impact</text><text x="14.028" y="27.722" class="c">examples/v1.ya</text></svg><svg x="6321"><use xlink:href="#a"/><use xlink:href="#b" x="28.996" y="26.027"/><use xlink:href="#12"/><use xlink:href="#13" y="2.171"/><use xlink:href="#14" y="6.513"/><use xlink:href="#15" y="10.855"/><use xlink:href="#16" y="13.026"/><use xlink:href="#17" y="15.197"/><use xlink:href="#18" y="19.539"/><use xlink:href="#19" y="21.71"/><text y="27.722" class="c">▶</text><text x="2.004" y="27.722" class="c">helm-impact</text><text x="14.028" y="27.722" class="c">examples/v1.yam</text></svg><svg x="6468"><use xlink:href="#a"/><use xlink:href="#b" x="29.996" y="26.027"/><use xlink:href="#12"/><use xlink:href="#13" y="2.171"/><use xlink:href="#14" y="6.513"/><use xlink:href="#15" y="10.855"/><use xlink:href="#16" y="13.026"/><use xlink:href="#17" y="15.197"/><use xlink:href="#18" y="19.539"/><use xlink:href="#19" y="21.71"/><text y="27.722" class="c">▶</text><text x="2.004" y="27.722" class="c">helm-impact</text><text x="14.028" y="27.722" class="c">examples/v1.yaml</text></svg><svg x="6615"><use xlink:href="#a"/><use xlink:href="#b" x="31.996" y="26.027"/><use xlink:href="#12"/><use xlink:href="#13" y="2.171"/><use xlink:href="#14" y="6.513"/><use xlink:href="#15" y="10.855"/><use xlink:href="#16" y="13.026"/><use xlink:href="#17" y="15.197"/><use xlink:href="#18" y="19.539"/><use xlink:href="#19" y="21.71"/><text y="27.722" class="c">▶</text><text x="2.004" y="27.722" class="c">helm-impact</text><text x="14.028" y="27.722" class="c">examples/v1.yaml</text><text x="31.062" y="27.722" class="c">e</text></svg><svg x="6762"><use xlink:href="#a"/><use xlink:href="#b" x="32.996" y="26.027"/><use xlink:href="#12"/><use xlink:href="#13" y="2.171"/><use xlink:href="#14" y="6.513"/><use xlink:href="#15" y="10.855"/><use xlink:href="#16" y="13.026"/><use xlink:href="#17" y="15.197"/><use xlink:href="#18" y="19.539"/><use xlink:href="#19" y="21.71"/><text y="27.722" class="c">▶</text><text x="2.004" y="27.722" class="c">helm-impact</text><text x="14.028" y="27.722" class="c">examples/v1.yaml</text><text x="31.062" y="27.722" class="c">ex</text></svg><svg x="6909"><use xlink:href="#a"/><use xlink:href="#b" x="33.996" y="26.027"/><use xlink:href="#12"/><use xlink:href="#13" y="2.171"/><use xlink:href="#14" y="6.513"/><use xlink:href="#15" y="10.855"/><use xlink:href="#16" y="13.026"/><use xlink:href="#17" y="15.197"/><use xlink:href="#18" y="19.539"/><use xlink:href="#19" y="21.71"/><text y="27.722" class="c">▶</text><text x="2.004" y="27.722" class="c">helm-impact</text><text x="14.028" y="27.722" class="c">examples/v1.yaml</text><text x="31.062" y="27.722" class="c">exa</text></svg><svg x="7056"><use xlink:href="#a"/><use xlink:href="#b" x="34.996" y="26.027"/><use xlink:href="#12"/><use xlink:href="#13" y="2.171"/><use xlink:href="#14" y="6.513"/><use xlink:href="#15" y="10.855"/><use xlink:href="#16" y="13.026"/><use xlink:href="#17" y="15.197"/><use xlink:href="#18" y="19.539"/><use xlink:href="#19" y="21.71"/><text y="27.722" class="c">▶</text><text x="2.004" y="27.722" class="c">helm-impact</text><text x="14.028" y="27.722" class="c">examples/v1.yaml</text><text x="31.062" y="27.722" class="c">exam</text></svg><svg x="7203"><use xlink:href="#a"/><use xlink:href="#b" x="35.996" y="26.027"/><use xlink:href="#12"/><use xlink:href="#13" y="2.171"/><use xlink:href="#14" y="6.513"/><use xlink:href="#15" y="10.855"/><use xlink:href="#16" y="13.026"/><use xlink:href="#17" y="15.197"/><use xlink:href="#18" y="19.539"/><use xlink:href="#19" y="21.71"/><text y="27.722" class="c">▶</text><text x="2.004" y="27.722" class="c">helm-impact</text><text x="14.028" y="27.722" class="c">examples/v1.yaml</text><text x="31.062" y="27.722" class="c">examp</text></svg><svg x="7350"><use xlink:href="#a"/><use xlink:href="#b" x="37.996" y="26.027"/><use xlink:href="#12"/><use xlink:href="#13" y="2.171"/><use xlink:href="#14" y="6.513"/><use xlink:href="#15" y="10.855"/><use xlink:href="#16" y="13.026"/><use xlink:href="#17" y="15.197"/><use xlink:href="#18" y="19.539"/><use xlink:href="#19" y="21.71"/><text y="27.722" class="c">▶</text><text x="2.004" y="27.722" class="c">helm-impact</text><text x="14.028" y="27.722" class="c">examples/v1.yaml</text><text x="31.062" y="27.722" class="c">example</text></svg><svg x="7497"><use xlink:href="#a"/><use xlink:href="#b" x="38.996" y="26.027"/><use xlink:href="#12"/><use xlink:href="#13" y="2.171"/><use xlink:href="#14" y="6.513"/><use xlink:href="#15" y="10.855"/><use xlink:href="#16" y="13.026"/><use xlink:href="#17" y="15.197"/><use xlink:href="#18" y="19.539"/><use xlink:href="#19" y="21.71"/><text y="27.722" class="c">▶</text><text x="2.004" y="27.722" class="c">helm-impact</text><text x="14.028" y="27.722" class="c">examples/v1.yaml</text><text x="31.062" y="27.722" class="c">examples</text></svg><svg x="7644"><use xlink:href="#a"/><use xlink:href="#b" x="39.996" y="26.027"/><use xlink:href="#12"/><use xlink:href="#13" y="2.171"/><use xlink:href="#14" y="6.513"/><use xlink:href="#15" y="10.855"/><use xlink:href="#16" y="13.026"/><use xlink:href="#17" y="15.197"/><use xlink:href="#18" y="19.539"/><use xlink:href="#19" y="21.71"/><text y="27.722" class="c">▶</text><text x="2.004" y="27.722" class="c">helm-impact</text><text x="14.028" y="27.722" class="c">examples/v1.yaml</text><text x="31.062" y="27.722" class="c">examples/</text></svg><svg x="7791"><use xlink:href="#a"/><use xlink:href="#b" x="40.996" y="26.027"/><use xlink:href="#12"/><use xlink:href="#13" y="2.171"/><use xlink:href="#14" y="6.513"/><use xlink:href="#15" y="10.855"/><use xlink:href="#16" y="13.026"/><use xlink:href="#17" y="15.197"/><use xlink:href="#18" y="19.539"/><use xlink:href="#19" y="21.71"/><text y="27.722" class="c">▶</text><text x="2.004" y="27.722" class="c">helm-impact</text><text x="14.028" y="27.722" class="c">examples/v1.yaml</text><text x="31.062" y="27.722" class="c">examples/v</text></svg><svg x="7938"><use xlink:href="#a"/><use xlink:href="#b" x="41.996" y="26.027"/><use xlink:href="#12"/><use xlink:href="#13" y="2.171"/><use xlink:href="#14" y="6.513"/><use xlink:href="#15" y="10.855"/><use xlink:href="#16" y="13.026"/><use xlink:href="#17" y="15.197"/><use xlink:href="#18" y="19.539"/><use xlink:href="#19" y="21.71"/><text y="27.722" class="c">▶</text><text x="2.004" y="27.722" class="c">helm-impact</text><text x="14.028" y="27.722" class="c">examples/v1.yaml</text><text x="31.062" y="27.722" class="c">examples/v2</text></svg><svg x="8085"><use xlink:href="#a"/><use xlink:href="#b" x="43.996" y="26.027"/><use xlink:href="#12"/><use xlink:href="#13" y="2.171"/><use xlink:href="#14" y="6.513"/><use xlink:href="#15" y="10.855"/><use xlink:href="#16" y="13.026"/><use xlink:href="#17" y="15.197"/><use xlink:href="#18" y="19.539"/><use xlink:href="#19" y="21.71"/><text y="27.722" class="c">▶</text><text x="2.004" y="27.722" class="c">helm-impact</text><text x="14.028" y="27.722" class="c">examples/v1.yaml</text><text x="31.062" y="27.722" class="c">examples/v2.y</text></svg><svg x="8232"><use xlink:href="#a"/><use xlink:href="#b" x="44.996" y="26.027"/><use xlink:href="#12"/><use xlink:href="#13" y="2.171"/><use xlink:href="#14" y="6.513"/><use xlink:href="#15" y="10.855"/><use xlink:href="#16" y="13.026"/><use xlink:href="#17" y="15.197"/><use xlink:href="#18" y="19.539"/><use xlink:href="#19" y="21.71"/><text y="27.722" class="c">▶</text><text x="2.004" y="27.722" class="c">helm-impact</text><text x="14.028" y="27.722" class="c">examples/v1.yaml</text><text x="31.062" y="27.722" class="c">examples/v2.ya</text></svg><svg x="8379"><use xlink:href="#a"/><use xlink:href="#b" x="45.996" y="26.027"/><use xlink:href="#12"/><use xlink:href="#13" y="2.171"/><use xlink:href="#14" y="6.513"/><use xlink:href="#15" y="10.855"/><use xlink:href="#16" y="13.026"/><use xlink:href="#17" y="15.197"/><use xlink:href="#18" y="19.539"/><use xlink:href="#19" y="21.71"/><text y="27.722" class="c">▶</text><text x="2.004" y="27.722" class="c">helm-impact</text><text x="14.028" y="27.722" class="c">examples/v1.yaml</text><text x="31.062" y="27.722" class="c">examples/v2.yam</text></svg><svg x="8526"><use xlink:href="#a"/><use xlink:href="#b" x="46.996" y="26.027"/><use xlink:href="#12"/><use xlink:href="#13" y="2.171"/><use xlink:href="#14" y="6.513"/><use xlink:href="#15" y="10.855"/><use xlink:href="#16" y="13.026"/><use xlink:href="#17" y="15.197"/><use xlink:href="#18" y="19.539"/><use xlink:href="#19" y="21.71"/><use xlink:href="#20" y="26.052"/></svg><svg x="8673"><use xlink:href="#a"/><use xlink:href="#b" x="-.004" y="28.198"/><use xlink:href="#12"/><use xlink:href="#13" y="2.171"/><use xlink:href="#14" y="6.513"/><use xlink:href="#15" y="10.855"/><use xlink:href="#16" y="13.026"/><use xlink:href="#17" y="15.197"/><use xlink:href="#18" y="19.539"/><use xlink:href="#19" y="21.71"/><use xlink:href="#20" y="26.052"/></svg><svg x="8820"><use xlink:href="#a"/><use xlink:href="#b" x="90.996" y="32.54"/><use xlink:href="#12"/><use xlink:href="#13" y="2.171"/><use xlink:href="#14" y="6.513"/><use xlink:href="#15" y="10.855"/><use xlink:href="#16" y="13.026"/><use xlink:href="#17" y="15.197"/><use xlink:href="#18" y="19.539"/><use xlink:href="#19" y="21.71"/><use xlink:href="#20" y="26.052"/><use xlink:href="#21" y="28.223"/><use xlink:href="#22" y="30.394"/><text y="34.235" class="c">┡━━━━━━━━━━━━━━━━━━━╇━━━━━━━━━━━━━━━━━━━━━━━━━━━━━━━╇━━━━━━━━━━╇━━━━━━━━━━━━━━━━━╇━━━━━━━━━</text></svg><svg x="8967"><use xlink:href="#a"/><use xlink:href="#b" x="63.996" y="43.395"/><use xlink:href="#12"/><use xlink:href="#13" y="2.171"/><use xlink:href="#14" y="6.513"/><use xlink:href="#15" y="10.855"/><use xlink:href="#16" y="13.026"/><use xlink:href="#17" y="15.197"/><use xlink:href="#18" y="19.539"/><use xlink:href="#19" y="21.71"/><use xlink:href="#20" y="26.052"/><use xlink:href="#21" y="28.223"/><use xlink:href="#22" y="30.394"/><use xlink:href="#23" y="32.565"/><use xlink:href="#24" y="34.736"/><use xlink:href="#25" y="36.907"/><use xlink:href="#26" y="39.078"/><use xlink:href="#27" y="41.249"/><text y="45.09" class="c">├───────────────────┼───────────────────────────────┼──────────┼</text></svg><svg x="9114"><use xlink:href="#a"/><use xlink:href="#b" x="91.996" y="52.079"/><use xlink:href="#12"/><use xlink:href="#13" y="2.171"/><use xlink:href="#14" y="6.513"/><use xlink:href="#15" y="10.855"/><use xlink:href="#16" y="13.026"/><use xlink:href="#17" y="15.197"/><use xlink:href="#18" y="19.539"/><use xlink:href="#19" y="21.71"/><use xlink:href="#20" y="26.052"/><use xlink:href="#21" y="28.223"/><use xlink:href="#22" y="30.394"/><use xlink:href="#23" y="32.565"/><use xlink:href="#24" y="34.736"/><use xlink:href="#25" y="36.907"/><use xlink:href="#26" y="39.078"/><use xlink:href="#27" y="41.249"/><use xlink:href="#28" y="43.42"/><use xlink:href="#29" y="45.591"/><use xlink:href="#30" y="47.762"/><use xlink:href="#31" y="49.933"/><text y="53.774" class="c">├───────────────────┼───────────────────────────────┼──────────┼─────────────────┼──────────</text></svg><svg x="9261"><use xlink:href="#a"/><use xlink:href="#b" x="62.996" y="60.763"/><use xlink:href="#12"/><use xlink:href="#13" y="2.171"/><use xlink:href="#14" y="6.513"/><use xlink:href="#15" y="10.855"/><use xlink:href="#16" y="13.026"/><use xlink:href="#17" y="15.197"/><use xlink:href="#18" y="19.539"/><use xlink:href="#19" y="21.71"/><use xlink:href="#20" y="26.052"/><use xlink:href="#21" y="28.223"/><use xlink:href="#22" y="30.394"/><use xlink:href="#23" y="32.565"/><use xlink:href="#24" y="34.736"/><use xlink:href="#25" y="36.907"/><use xlink:href="#26" y="39.078"/><use xlink:href="#27" y="41.249"/><use xlink:href="#28" y="43.42"/><use xlink:href="#29" y="45.591"/><use xlink:href="#30" y="47.762"/><use xlink:href="#31" y="49.933"/><use xlink:href="#28" y="52.104"/><use xlink:href="#32" y="54.275"/><use xlink:href="#33" y="56.446"/><use xlink:href="#28" y="58.617"/><text y="62.458" class="c">│</text><text x="2.004" y="62.458" class="c">Deployment/my-app</text><text x="20.04" y="62.458" class="c">│</text><text x="22.044" y="62.458" class="c">spec.strategy.type</text><text x="52.104" y="62.458" class="c">│</text><text x="54.108" y="62.458" class="k">DANGER</text></svg><svg x="9408"><use xlink:href="#a"/><use xlink:href="#b" x="-.004" y="71.618"/><use xlink:href="#12"/><use xlink:href="#13" y="2.171"/><use xlink:href="#14" y="6.513"/><use xlink:href="#15" y="10.855"/><use xlink:href="#16" y="13.026"/><use xlink:href="#17" y="15.197"/><use xlink:href="#18" y="19.539"/><use xlink:href="#19" y="21.71"/><use xlink:href="#20" y="26.052"/><use xlink:href="#21" y="28.223"/><use xlink:href="#22" y="30.394"/><use xlink:href="#23" y="32.565"/><use xlink:href="#24" y="34.736"/><use xlink:href="#25" y="36.907"/><use xlink:href="#26" y="39.078"/><use xlink:href="#27" y="41.249"/><use xlink:href="#28" y="43.42"/><use xlink:href="#29" y="45.591"/><use xlink:href="#30" y="47.762"/><use xlink:href="#31" y="49.933"/><use xlink:href="#28" y="52.104"/><use xlink:href="#32" y="54.275"/><use xlink:href="#33" y="56.446"/><use xlink:href="#28" y="58.617"/><use xlink:href="#34" y="60.788"/><use xlink:href="#35" y="62.959"/><use xlink:href="#36" y="65.13"/><use xlink:href="#37" y="67.301"/><use xlink:href="#38" y="69.472"/></svg><svg x="9555"><use xlink:href="#a"/><use xlink:href="#b" x="-.004" y="73.789"/><use xlink:href="#12"/><use xlink:href="#13" y="2.171"/><use xlink:href="#14" y="6.513"/><use xlink:href="#15" y="10.855"/><use xlink:href="#16" y="13.026"/><use xlink:href="#17" y="15.197"/><use xlink:href="#18" y="19.539"/><use xlink:href="#19" y="21.71"/><use xlink:href="#20" y="26.052"/><use xlink:href="#21" y="28.223"/><use xlink:href="#22" y="30.394"/><use xlink:href="#23" y="32.565"/><use xlink:href="#24" y="34.736"/><use xlink:href="#25" y="36.907"/><use xlink:href="#26" y="39.078"/><use xlink:href="#27" y="41.249"/><use xlink:href="#28" y="43.42"/><use xlink:href="#29" y="45.591"/><use xlink:href="#30" y="47.762"/><use xlink:href="#31" y="49.933"/><use xlink:href="#28" y="52.104"/><use xlink:href="#32" y="54.275"/><use xlink:href="#33" y="56.446"/><use xlink:href="#28" y="58.617"/><use xlink:href="#34" y="60.788"/><use xlink:href="#35" y="62.959"/><use xlink:href="#36" y="65.13"/><use xlink:href="#37" y="67.301"/><use xlink:href="#38" y="69.472"/></svg><svg x="9702"><use xlink:href="#a"/><use xlink:href="#b" x="1.996" y="73.789"/><use xlink:href="#12"/><use xlink:href="#13" y="2.171"/><use xlink:href="#14" y="6.513"/><use xlink:href="#15" y="10.855"/><use xlink:href="#16" y="13.026"/><use xlink:href="#17" y="15.197"/><use xlink:href="#18" y="19.539"/><use xlink:href="#19" y="21.71"/><use xlink:href="#20" y="26.052"/><use xlink:href="#21" y="28.223"/><use xlink:href="#22" y="30.394"/><use xlink:href="#23" y="32.565"/><use xlink:href="#24" y="34.736"/><use xlink:href="#25" y="36.907"/><use xlink:href="#26" y="39.078"/><use xlink:href="#27" y="41.249"/><use xlink:href="#28" y="43.42"/><use xlink:href="#29" y="45.591"/><use xlink:href="#30" y="47.762"/><use xlink:href="#31" y="49.933"/><use xlink:href="#28" y="52.104"/><use xlink:href="#32" y="54.275"/><use xlink:href="#33" y="56.446"/><use xlink:href="#28" y="58.617"/><use xlink:href="#34" y="60.788"/><use xlink:href="#35" y="62.959"/><use xlink:href="#36" y="65.13"/><use xlink:href="#37" y="67.301"/><use xlink:href="#38" y="69.472"/><use xlink:href="#1" y="73.814"/></svg><svg x="9849"><use xlink:href="#a"/><use xlink:href="#b" x="-.004" y="73.789"/><use xlink:href="#13"/><use xlink:href="#14" y="4.342"/><use xlink:href="#15" y="8.684"/><use xlink:href="#16" y="10.855"/><use xlink:href="#17" y="13.026"/><use xlink:href="#18" y="17.368"/><use xlink:href="#19" y="19.539"/><use xlink:href="#20" y="23.881"/><use xlink:href="#21" y="26.052"/><use xlink:href="#22" y="28.223"/><use xlink:href="#23" y="30.394"/><use xlink:href="#24" y="32.565"/><use xlink:href="#25" y="34.736"/><use xlink:href="#26" y="36.907"/><use xlink:href="#27" y="39.078"/><use xlink:href="#28" y="41.249"/><use xlink:href="#29" y="43.42"/><use xlink:href="#30" y="45.591"/><use xlink:href="#31" y="47.762"/><use xlink:href="#28" y="49.933"/><use xlink:href="#32" y="52.104"/><use xlink:href="#33" y="54.275"/><use xlink:href="#28" y="56.446"/><use xlink:href="#34" y="58.617"/><use xlink:href="#35" y="60.788"/><use xlink:href="#36" y="62.959"/><use xlink:href="#37" y="65.13"/><use xlink:href="#38" y="67.301"/><use xlink:href="#1" y="71.643"/></svg></svg></g></g></svg></svg>