<svg xmlns="http://www.w3.org/2000/svg" xmlns:xlink="http://www.w3.org/1999/xlink" width="1740" height="475.91"><rect width="1740" height="475.91" rx="0" ry="0" class="a"/><svg height="455.91" viewBox="0 0 172 45.591" width="1720" x="10" xmlns="http://www.w3.org/2000/svg" xmlns:xlink="http://www.w3.org/1999/xlink" y="10"><style>@keyframes n{0%{transform:translateX(0)}.6%{transform:translateX(-172px)}10.2%{transform:translateX(-344px)}11.9%{transform:translateX(-516px)}12.7%{transform:translateX(-688px)}13.6%{transform:translateX(-860px)}14.5%{transform:translateX(-1032px)}15.4%{transform:translateX(-1204px)}16.2%{transform:translateX(-1376px)}17.1%{transform:translateX(-1548px)}18%{transform:translateX(-1720px)}18.8%{transform:translateX(-1892px)}19.7%{transform:translateX(-2064px)}20.6%{transform:translateX(-2236px)}21.4%{transform:translateX(-2408px)}22.2%{transform:translateX(-2580px)}23.7%{transform:translateX(-2752px)}24.5%{transform:translateX(-2924px)}25.4%{transform:translateX(-3096px)}26.2%{transform:translateX(-3268px)}31%{transform:translateX(-3440px)}33.4%{transform:translateX(-3612px)}35.5%{transform:translateX(-3784px)}35.7%{transform:translateX(-3956px)}47%{transform:translateX(-4128px)}47.8%{transform:translateX(-4300px)}48.7%{transform:translateX(-4472px)}49.5%{transform:translateX(-4644px)}50.4%{transform:translateX(-4816px)}51.3%{transform:translateX(-4988px)}52.2%{transform:translateX(-5160px)}53%{transform:translateX(-5332px)}54.8%{transform:translateX(-5504px)}55.6%{transform:translateX(-5676px)}56.5%{transform:translateX(-5848px)}57.4%{transform:translateX(-6020px)}58.2%{transform:translateX(-6192px)}59.1%{transform:translateX(-6364px)}60.8%{transform:translateX(-6536px)}61.7%{transform:translateX(-6708px)}62.6%{transform:translateX(-6880px)}64.3%{transform:translateX(-7052px)}65.2%{transform:translateX(-7224px)}66%{transform:translateX(-7396px)}66.9%{transform:translateX(-7568px)}67.8%{transform:translateX(-7740px)}68.6%{transform:translateX(-7912px)}69.5%{transform:translateX(-8084px)}70.4%{transform:translateX(-8256px)}71.2%{transform:translateX(-8428px)}72.9%{transform:translateX(-8600px)}74.7%{transform:translateX(-8772px)}75.5%{transform:translateX(-8944px)}76.4%{transform:translateX(-9116px)}77.3%{transform:translateX(-9288px)}78.1%{transform:translateX(-9460px)}79%{transform:translateX(-9632px)}79.8%{transform:translateX(-9804px)}80.7%{transform:translateX(-9976px)}82.4%{transform:translateX(-10148px)}83.3%{transform:translateX(-10320px)}84.3%{transform:translateX(-10492px)}85.1%{transform:translateX(-10664px)}85.9%{transform:translateX(-10836px)}86.8%{transform:translateX(-11008px)}88.5%{transform:translateX(-11180px)}89.4%{transform:translateX(-11352px)}90.2%{transform:translateX(-11524px)}92%{transform:translateX(-11696px)}96.7%{transform:translateX(-11868px)}99.5%{transform:translateX(-12900px)}99.9%{transform:translateX(-13072px)}to{transform:translateX(-13244px)}}.a{fill:#282d35}.c,.d{fill:#b9c0cb;white-space:pre}.d{fill:#71bef2;font-weight:700}.f,.g{fill:#a8cc8c}.f{white-space:pre}.g{font-weight:700}.g,.i,.j{white-space:pre}.i{fill:#b9c0cb;font-weight:700}.j{fill:#dbab79}</style><g font-family="Monaco,Consolas,Menlo,'Bitstream Vera Sans Mono','Powerline Symbols',monospace" font-size="1.67"><defs><symbol id="1"><text y="1.67" class="c">▶</text></symbol><symbol id="2"><text y="1.67" class="c">▶</text><text x="2.004" y="1.67" class="c">h</text></symbol><symbol id="3"><text y="1.67" class="c">▶</text><text x="2.004" y="1.67" class="c">he</text></symbol><symbol id="4"><text y="1.67" class="c">▶</text><text x="2.004" y="1.67" class="c">hel</text></symbol><symbol id="5"><text y="1.67" class="c">▶</text><text x="2.004" y="1.67" class="c">helm</text></symbol><symbol id="6"><text y="1.67" class="c">▶</text><text x="2.004" y="1.67" class="c">helm-</text></symbol><symbol id="7"><text y="1.67" class="c">▶</text><text x="2.004" y="1.67" class="c">helm-i</text></symbol><symbol id="8"><text y="1.67" class="c">▶</text><text x="2.004" y="1.67" class="c">helm-im</text></symbol><symbol id="9"><text y="1.67" class="c">▶</text><text x="2.004" y="1.67" class="c">helm-imp</text></symbol><symbol id="10"><text y="1.67" class="c">▶</text><text x="2.004" y="1.67" class="c">helm-impa</text></symbol><symbol id="11"><text y="1.67" class="c">▶</text><text x="2.004" y="1.67" class="c">helm-impac</text></symbol><symbol id="12"><text y="1.67" class="c">▶</text><text x="2.004" y="1.67" class="c">helm-impact</text></symbol><symbol id="13"><text y="1.67" class="c">▶</text><text x="2.004" y="1.67" class="c">helm-impact</text><text x="14.028" y="1.67" class="c">--help</text></symbol><symbol id="14"><text y="1.67" class="d">usage:</text><text x="7.014" y="1.67" style="white-space:pre" fill="#d290e4" font-weight="700">helm-impact</text><text x="19.038" y="1.67" class="c">[</text><text x="20.04" y="1.67" class="f">-h</text><text x="22.044" y="1.67" class="c">]</text><text x="24.048" y="1.67" class="f">old_manifest</text><text x="37.074" y="1.67" class="f">new_manifest</text></symbol><symbol id="15"><text y="1.67" class="c">Analyze</text><text x="8.016" y="1.67" class="c">Helm</text><text x="13.026" y="1.67" class="c">manifest</text><text x="22.044" y="1.67" class="c">changes</text></symbol><symbol id="16"><text y="1.67" class="d">positional</text><text x="11.022" y="1.67" class="d">arguments:</text></symbol><symbol id="17"><text x="2.004" y="1.67" class="g">old_manifest</text><text x="16.032" y="1.67" class="c">Path</text><text x="21.042" y="1.67" class="c">to</text><text x="24.048" y="1.67" class="c">the</text><text x="28.056" y="1.67" class="c">old</text><text x="32.064" y="1.67" class="c">manifest</text><text x="41.082" y="1.67" class="c">YAML</text><text x="46.092" y="1.67" class="c">file</text></symbol><symbol id="18"><text x="2.004" y="1.67" class="g">new_manifest</text><text x="16.032" y="1.67" class="c">Path</text><text x="21.042" y="1.67" class="c">to</text><text x="24.048" y="1.67" class="c">the</text><text x="28.056" y="1.67" class="c">new</text><text x="32.064" y="1.67" class="c">manifest</text><text x="41.082" y="1.67" class="c">YAML</text><text x="46.092" y="1.67" class="c">file</text></symbol><symbol id="19"><text y="1.67" class="d">options:</text></symbol><symbol id="20"><text x="2.004" y="1.67" class="g">-h</text><text x="4.008" y="1.67" class="c">,</text><text x="6.012" y="1.67" style="white-space:pre" fill="#66c2cd" font-weight="700">--help</text><text x="16.032" y="1.67" class="c">show</text><text x="21.042" y="1.67" class="c">this</text><text x="26.052" y="1.67" class="c">help</text><text x="31.062" y="1.67" class="c">message</text><text x="39.078" y="1.67" class="c">and</text><text x="43.086" y="1.67" class="c">exit</text></symbol><symbol id="21"><text y="1.67" class="c">▶</text><text x="2.004" y="1.67" class="c">helm-impact</text><text x="14.028" y="1.67" class="c">examples/v1.yaml</text></symbol><symbol id="22"><text y="1.67" class="c">▶</text><text x="2.004" y="1.67" class="c">helm-impact</text><text x="14.028" y="1.67" class="c">examples/v1.yaml</text><text x="31.062" y="1.67" class="c">examples/v2.yaml</text></symbol><symbol id="23"><text y="1.67" class="c">┏━━━━━━━━━━━━━━━━━━━┳━━━━━━━━━━━━━━━━━━━━━━━━━━━━━━━━━━━━━━━━┳━━━━━━━━━━┳━━━━━━━━━━━━━━━━━┳━━━━━━━━━━━━━━━━━━━━━━━━━━━━━━━━━━━━━━━┳━━━━━━━━━━━━━━━━━━━━━━━━━━━━━━━━━━━━━━━━┓</text></symbol><symbol id="24"><text y="1.67" class="c">┃</text><text x="2.004" y="1.67" class="i">Resource</text><text x="20.04" y="1.67" class="c">┃</text><text x="22.044" y="1.67" class="i">Field</text><text x="61.122" y="1.67" class="c">┃</text><text x="63.126" y="1.67" class="i">Severity</text><text x="72.144" y="1.67" class="c">┃</text><text x="74.148" y="1.67" class="i">Impact</text><text x="90.18" y="1.67" class="c">┃</text><text x="92.184" y="1.67" class="i">Description</text><text x="130.26" y="1.67" class="c">┃</text><text x="132.264" y="1.67" class="i">Remediation</text><text x="171.342" y="1.67" class="c">┃</text></symbol><symbol id="25"><text y="1.67" class="c">┡━━━━━━━━━━━━━━━━━━━╇━━━━━━━━━━━━━━━━━━━━━━━━━━━━━━━━━━━━━━━━╇━━━━━━━━━━╇━━━━━━━━━━━━━━━━━╇━━━━━━━━━━━━━━━━━━━━━━━━━━━━━━━━━━━━━━━╇━━━━━━━━━━━━━━━━━━━━━━━━━━━━━━━━━━━━━━━━┩</text></symbol><symbol id="26"><text y="1.67" class="c">│</text><text x="2.004" y="1.67" class="c">Deployment/my-app</text><text x="20.04" y="1.67" class="c">│</text><text x="22.044" y="1.67" class="c">spec.template.spec.containers.[*].reso</text><text x="61.122" y="1.67" class="c">│</text><text x="63.126" y="1.67" class="j">WARNING</text><text x="72.144" y="1.67" class="c">│</text><text x="74.148" y="1.67" class="c">ROLLING_RESTART</text><text x="90.18" y="1.67" class="c">│</text><text x="92.184" y="1.67" class="c">Container</text><text x="102.204" y="1.67" class="c">resource</text><text x="111.222" y="1.67" class="c">memory</text><text x="118.236" y="1.67" class="c">limit</text><text x="130.26" y="1.67" class="c">│</text><text x="132.264" y="1.67" class="c">Rolling</text><text x="140.28" y="1.67" class="c">restart</text><text x="148.296" y="1.67" class="c">--</text><text x="151.302" y="1.67" class="c">ensure</text><text x="158.316" y="1.67" class="c">new</text><text x="162.324" y="1.67" class="c">limits</text><text x="171.342" y="1.67" class="c">│</text></symbol><symbol id="27"><text y="1.67" class="c">│</text><text x="20.04" y="1.67" class="c">│</text><text x="22.044" y="1.67" class="c">urces.limits.memory</text><text x="61.122" y="1.67" class="c">│</text><text x="72.144" y="1.67" class="c">│</text><text x="90.18" y="1.67" class="c">│</text><text x="92.184" y="1.67" class="c">changed</text><text x="100.2" y="1.67" class="c">from</text><text x="105.21" y="1.67" class="c">256Mi</text><text x="111.222" y="1.67" class="c">to</text><text x="114.228" y="1.67" class="c">512Mi</text><text x="130.26" y="1.67" class="c">│</text><text x="132.264" y="1.67" class="c">are</text><text x="136.272" y="1.67" class="c">within</text><text x="143.286" y="1.67" class="c">node</text><text x="148.296" y="1.67" class="c">capacity</text><text x="171.342" y="1.67" class="c">│</text></symbol><symbol id="28"><text y="1.67" class="c">├───────────────────┼────────────────────────────────────────┼──────────┼─────────────────┼───────────────────────────────────────┼────────────────────────────────────────┤</text></symbol><symbol id="29"><text y="1.67" class="c">│</text><text x="2.004" y="1.67" class="c">Deployment/my-app</text><text x="20.04" y="1.67" class="c">│</text><text x="22.044" y="1.67" class="c">spec.template.spec.containers.[*].imag</text><text x="61.122" y="1.67" class="c">│</text><text x="63.126" y="1.67" class="j">WARNING</text><text x="72.144" y="1.67" class="c">│</text><text x="74.148" y="1.67" class="c">ROLLING_RESTART</text><text x="90.18" y="1.67" class="c">│</text><text x="92.184" y="1.67" class="c">Changing</text><text x="101.202" y="1.67" class="c">container</text><text x="111.222" y="1.67" class="c">image</text><text x="117.234" y="1.67" class="c">from</text><text x="130.26" y="1.67" class="c">│</text><text x="132.264" y="1.67" class="c">This</text><text x="137.274" y="1.67" class="c">will</text><text x="142.284" y="1.67" class="c">trigger</text><text x="150.3" y="1.67" class="c">a</text><text x="152.304" y="1.67" class="c">rolling</text><text x="160.32" y="1.67" class="c">restart.</text><text x="171.342" y="1.67" class="c">│</text></symbol><symbol id="30"><text y="1.67" class="c">│</text><text x="20.04" y="1.67" class="c">│</text><text x="22.044" y="1.67" class="c">e</text><text x="61.122" y="1.67" class="c">│</text><text x="72.144" y="1.67" class="c">│</text><text x="90.18" y="1.67" class="c">│</text><text x="92.184" y="1.67" class="c">my-app:v1.0.0</text><text x="106.212" y="1.67" class="c">to</text><text x="109.218" y="1.67" class="c">my-app:v1.1.0t</text><text x="130.26" y="1.67" class="c">│</text><text x="132.264" y="1.67" class="c">Ensure</text><text x="139.278" y="1.67" class="c">that</text><text x="144.288" y="1.67" class="c">the</text><text x="148.296" y="1.67" class="c">new</text><text x="152.304" y="1.67" class="c">image</text><text x="158.316" y="1.67" class="c">is</text><text x="171.342" y="1.67" class="c">│</text></symbol><symbol id="31"><text y="1.67" class="c">│</text><text x="20.04" y="1.67" class="c">│</text><text x="61.122" y="1.67" class="c">│</text><text x="72.144" y="1.67" class="c">│</text><text x="90.18" y="1.67" class="c">│</text><text x="130.26" y="1.67" class="c">│</text><text x="132.264" y="1.67" class="c">compatible</text><text x="143.286" y="1.67" class="c">and</text><text x="147.294" y="1.67" class="c">has</text><text x="151.302" y="1.67" class="c">been</text><text x="156.312" y="1.67" class="c">tested.</text><text x="171.342" y="1.67" class="c">│</text></symbol><symbol id="32"><text y="1.67" class="c">│</text><text x="2.004" y="1.67" class="c">Deployment/my-app</text><text x="20.04" y="1.67" class="c">│</text><text x="22.044" y="1.67" class="c">spec.replicas</text><text x="61.122" y="1.67" class="c">│</text><text x="63.126" y="1.67" class="f">INFO</text><text x="72.144" y="1.67" class="c">│</text><text x="74.148" y="1.67" class="c">SCALE_EVENT</text><text x="90.18" y="1.67" class="c">│</text><text x="92.184" y="1.67" class="c">Changing</text><text x="101.202" y="1.67" class="c">replicas</text><text x="110.22" y="1.67" class="c">from</text><text x="115.23" y="1.67" class="c">2</text><text x="117.234" y="1.67" class="c">to</text><text x="120.24" y="1.67" class="c">5</text><text x="130.26" y="1.67" class="c">│</text><text x="132.264" y="1.67" class="c">Scale</text><text x="138.276" y="1.67" class="c">up</text><text x="141.282" y="1.67" class="c">--</text><text x="144.288" y="1.67" class="c">ensure</text><text x="151.302" y="1.67" class="c">cluster</text><text x="159.318" y="1.67" class="c">has</text><text x="171.342" y="1.67" class="c">│</text></symbol><symbol id="33"><text y="1.67" class="c">│</text><text x="20.04" y="1.67" class="c">│</text><text x="61.122" y="1.67" class="c">│</text><text x="72.144" y="1.67" class="c">│</text><text x="90.18" y="1.67" class="c">│</text><text x="130.26" y="1.67" class="c">│</text><text x="132.264" y="1.67" class="c">capacity</text><text x="141.282" y="1.67" class="c">for</text><text x="145.29" y="1.67" class="c">additional</text><text x="156.312" y="1.67" class="c">pods.</text><text x="171.342" y="1.67" class="c">│</text></symbol><symbol id="34"><text y="1.67" class="c">│</text><text x="2.004" y="1.67" class="c">Deployment/my-app</text><text x="20.04" y="1.67" class="c">│</text><text x="22.044" y="1.67" class="c">spec.strategy.type</text><text x="61.122" y="1.67" class="c">│</text><text x="63.126" y="1.67" style="white-space:pre" fill="#e88388">DANGER</text><text x="72.144" y="1.67" class="c">│</text><text x="74.148" y="1.67" class="c">DOWNTIME</text><text x="90.18" y="1.67" class="c">│</text><text x="92.184" y="1.67" class="c">Deployment</text><text x="103.206" y="1.67" class="c">strategy</text><text x="112.224" y="1.67" class="c">changed</text><text x="120.24" y="1.67" class="c">from</text><text x="130.26" y="1.67" class="c">│</text><text x="132.264" y="1.67" class="c">Recreate</text><text x="141.282" y="1.67" class="c">strategy</text><text x="150.3" y="1.67" class="c">will</text><text x="155.31" y="1.67" class="c">cause</text><text x="161.322" y="1.67" class="c">downtime</text><text x="171.342" y="1.67" class="c">│</text></symbol><symbol id="35"><text y="1.67" class="c">│</text><text x="20.04" y="1.67" class="c">│</text><text x="61.122" y="1.67" class="c">│</text><text x="72.144" y="1.67" class="c">│</text><text x="90.18" y="1.67" class="c">│</text><text x="92.184" y="1.67" class="c">RollingUpdate</text><text x="106.212" y="1.67" class="c">to</text><text x="109.218" y="1.67" class="c">Recreate</text><text x="130.26" y="1.67" class="c">│</text><text x="132.264" y="1.67" class="c">--</text><text x="135.27" y="1.67" class="c">revert</text><text x="142.284" y="1.67" class="c">to</text><text x="145.29" y="1.67" class="c">Rollingupdate</text><text x="159.318" y="1.67" class="c">or</text><text x="162.324" y="1.67" class="c">ensure</text><text x="171.342" y="1.67" class="c">│</text></symbol><symbol id="36"><text y="1.67" class="c">│</text><text x="20.04" y="1.67" class="c">│</text><text x="61.122" y="1.67" class="c">│</text><text x="72.144" y="1.67" class="c">│</text><text x="90.18" y="1.67" class="c">│</text><text x="130.26" y="1.67" class="c">│</text><text x="132.264" y="1.67" class="c">downtime</text><text x="141.282" y="1.67" class="c">is</text><text x="144.288" y="1.67" class="c">acceptable.</text><text x="171.342" y="1.67" class="c">│</text></symbol><symbol id="37"><text y="1.67" class="c">└───────────────────┴────────────────────────────────────────┴──────────┴─────────────────┴───────────────────────────────────────┴────────────────────────────────────────┘</text></symbol><symbol id="a"><path fill="transparent" d="M0 0h172v21H0z"/></symbol><symbol id="b"><path fill="#6f7683" d="M0 0h1.102v2.171H0z"/></symbol></defs><path class="a" d="M0 0h172v45.591H0z"/><g style="animation-duration:10.817956s;animation-iteration-count:infinite;animation-name:n;animation-timing-function:steps(1,end)"><svg width="13416"><svg><use xlink:href="#a"/><use xlink:href="#b" x="-.004"/></svg><svg x="172"><use xlink:href="#a"/><use xlink:href="#b" x="1.996"/><use xlink:href="#1"/></svg><svg x="344"><use xlink:href="#a"/><use xlink:href="#b" x="2.996"/><use xlink:href="#2"/></svg><svg x="516"><use xlink:href="#a"/><use xlink:href="#b" x="3.996"/><use xlink:href="#3"/></svg><svg x="688"><use xlink:href="#a"/><use xlink:href="#b" x="4.996"/><use xlink:href="#4"/></svg><svg x="860"><use xlink:href="#a"/><use xlink:href="#b" x="5.996"/><use xlink:href="#5"/></svg><svg x="1032"><use xlink:href="#a"/><use xlink:href="#b" x="6.996"/><use xlink:href="#6"/></svg><svg x="1204"><use xlink:href="#a"/><use xlink:href="#b" x="7.996"/><use xlink:href="#7"/></svg><svg x="1376"><use xlink:href="#a"/><use xlink:href="#b" x="8.996"/><use xlink:href="#8"/></svg><svg x="1548"><use xlink:href="#a"/><use xlink:href="#b" x="9.996"/><use xlink:href="#9"/></svg><svg x="1720"><use xlink:href="#a"/><use xlink:href="#b" x="10.996"/><use xlink:href="#10"/></svg><svg x="1892"><use xlink:href="#a"/><use xlink:href="#b" x="11.996"/><use xlink:href="#11"/></svg><svg x="2064"><use xlink:href="#a"/><use xlink:href="#b" x="12.996"/><use xlink:href="#12"/></svg><svg x="2236"><use xlink:href="#a"/><use xlink:href="#b" x="13.996"/><use xlink:href="#12"/></svg><svg x="2408"><use xlink:href="#a"/><use xlink:href="#b" x="14.996"/><text y="1.67" class="c">▶</text><text x="2.004" y="1.67" class="c">helm-impact</text><text x="14.028" y="1.67" class="c">-</text></svg><svg x="2580"><use xlink:href="#a"/><use xlink:href="#b" x="15.996"/><text y="1.67" class="c">▶</text><text x="2.004" y="1.67" class="c">helm-impact</text><text x="14.028" y="1.67" class="c">--</text></svg><svg x="2752"><use xlink:href="#a"/><use xlink:href="#b" x="16.996"/><text y="1.67" class="c">▶</text><text x="2.004" y="1.67" class="c">helm-impact</text><text x="14.028" y="1.67" class="c">--h</text></svg><svg x="2924"><use xlink:href="#a"/><use xlink:href="#b" x="17.996"/><text y="1.67" class="c">▶</text><text x="2.004" y="1.67" class="c">helm-impact</text><text x="14.028" y="1.67" class="c">--he</text></svg><svg x="3096"><use xlink:href="#a"/><use xlink:href="#b" x="18.996"/><text y="1.67" class="c">▶</text><text x="2.004" y="1.67" class="c">helm-impact</text><text x="14.028" y="1.67" class="c">--hel</text></svg><svg x="3268"><use xlink:href="#a"/><use xlink:href="#b" x="19.996"/><use xlink:href="#13"/></svg><svg x="3440"><use xlink:href="#a"/><use xlink:href="#b" x="-.004" y="2.146"/><use xlink:href="#13"/></svg><svg x="3612"><use xlink:href="#a"/><use xlink:href="#b" x="-.004" y="23.856"/><use xlink:href="#13"/><use xlink:href="#14" y="2.171"/><use xlink:href="#15" y="6.513"/><use xlink:href="#16" y="10.855"/><use xlink:href="#17" y="13.026"/><use xlink:href="#18" y="15.197"/><use xlink:href="#19" y="19.539"/><use xlink:href="#20" y="21.71"/></svg><svg x="3784"><use xlink:href="#a"/><use xlink:href="#b" x="-.004" y="26.027"/><use xlink:href="#13"/><use xlink:href="#14" y="2.171"/><use xlink:href="#15" y="6.513"/><use xlink:href="#16" y="10.855"/><use xlink:href="#17" y="13.026"/><use xlink:href="#18" y="15.197"/><use xlink:href="#19" y="19.539"/><use xlink:href="#20" y="21.71"/></svg><svg x="3956"><use xlink:href="#a"/><use xlink:href="#b" x="1.996" y="26.027"/><use xlink:href="#13"/><use xlink:href="#14" y="2.171"/><use xlink:href="#15" y="6.513"/><use xlink:href="#16" y="10.855"/><use xlink:href="#17" y="13.026"/><use xlink:href="#18" y="15.197"/><use xlink:href="#19" y="19.539"/><use xlink:href="#20" y="21.71"/><use xlink:href="#1" y="26.052"/></svg><svg x="4128"><use xlink:href="#a"/><use xlink:href="#b" x="2.996" y="26.027"/><use xlink:href="#13"/><use xlink:href="#14" y="2.171"/><use xlink:href="#15" y="6.513"/><use xlink:href="#16" y="10.855"/><use xlink:href="#17" y="13.026"/><use xlink:href="#18" y="15.197"/><use xlink:href="#19" y="19.539"/><use xlink:href="#20" y="21.71"/><use xlink:href="#2" y="26.052"/></svg><svg x="4300"><use xlink:href="#a"/><use xlink:href="#b" x="3.996" y="26.027"/><use xlink:href="#13"/><use xlink:href="#14" y="2.171"/><use xlink:href="#15" y="6.513"/><use xlink:href="#16" y="10.855"/><use xlink:href="#17" y="13.026"/><use xlink:href="#18" y="15.197"/><use xlink:href="#19" y="19.539"/><use xlink:href="#20" y="21.71"/><use xlink:href="#3" y="26.052"/></svg><svg x="4472"><use xlink:href="#a"/><use xlink:href="#b" x="4.996" y="26.027"/><use xlink:href="#13"/><use xlink:href="#14" y="2.171"/><use xlink:href="#15" y="6.513"/><use xlink:href="#16" y="10.855"/><use xlink:href="#17" y="13.026"/><use xlink:href="#18" y="15.197"/><use xlink:href="#19" y="19.539"/><use xlink:href="#20" y="21.71"/><use xlink:href="#4" y="26.052"/></svg><svg x="4644"><use xlink:href="#a"/><use xlink:href="#b" x="5.996" y="26.027"/><use xlink:href="#13"/><use xlink:href="#14" y="2.171"/><use xlink:href="#15" y="6.513"/><use xlink:href="#16" y="10.855"/><use xlink:href="#17" y="13.026"/><use xlink:href="#18" y="15.197"/><use xlink:href="#19" y="19.539"/><use xlink:href="#20" y="21.71"/><use xlink:href="#5" y="26.052"/></svg><svg x="4816"><use xlink:href="#a"/><use xlink:href="#b" x="6.996" y="26.027"/><use xlink:href="#13"/><use xlink:href="#14" y="2.171"/><use xlink:href="#15" y="6.513"/><use xlink:href="#16" y="10.855"/><use xlink:href="#17" y="13.026"/><use xlink:href="#18" y="15.197"/><use xlink:href="#19" y="19.539"/><use xlink:href="#20" y="21.71"/><use xlink:href="#6" y="26.052"/></svg><svg x="4988"><use xlink:href="#a"/><use xlink:href="#b" x="7.996" y="26.027"/><use xlink:href="#13"/><use xlink:href="#14" y="2.171"/><use xlink:href="#15" y="6.513"/><use xlink:href="#16" y="10.855"/><use xlink:href="#17" y="13.026"/><use xlink:href="#18" y="15.197"/><use xlink:href="#19" y="19.539"/><use xlink:href="#20" y="21.71"/><use xlink:href="#7" y="26.052"/></svg><svg x="5160"><use xlink:href="#a"/><use xlink:href="#b" x="8.996" y="26.027"/><use xlink:href="#13"/><use xlink:href="#14" y="2.171"/><use xlink:href="#15" y="6.513"/><use xlink:href="#16" y="10.855"/><use xlink:href="#17" y="13.026"/><use xlink:href="#18" y="15.197"/><use xlink:href="#19" y="19.539"/><use xlink:href="#20" y="21.71"/><use xlink:href="#8" y="26.052"/></svg><svg x="5332"><use xlink:href="#a"/><use xlink:href="#b" x="9.996" y="26.027"/><use xlink:href="#13"/><use xlink:href="#14" y="2.171"/><use xlink:href="#15" y="6.513"/><use xlink:href="#16" y="10.855"/><use xlink:href="#17" y="13.026"/><use xlink:href="#18" y="15.197"/><use xlink:href="#19" y="19.539"/><use xlink:href="#20" y="21.71"/><use xlink:href="#9" y="26.052"/></svg><svg x="5504"><use xlink:href="#a"/><use xlink:href="#b" x="10.996" y="26.027"/><use xlink:href="#13"/><use xlink:href="#14" y="2.171"/><use xlink:href="#15" y="6.513"/><use xlink:href="#16" y="10.855"/><use xlink:href="#17" y="13.026"/><use xlink:href="#18" y="15.197"/><use xlink:href="#19" y="19.539"/><use xlink:href="#20" y="21.71"/><use xlink:href="#10" y="26.052"/></svg><svg x="5676"><use xlink:href="#a"/><use xlink:href="#b" x="11.996" y="26.027"/><use xlink:href="#13"/><use xlink:href="#14" y="2.171"/><use xlink:href="#15" y="6.513"/><use xlink:href="#16" y="10.855"/><use xlink:href="#17" y="13.026"/><use xlink:href="#18" y="15.197"/><use xlink:href="#19" y="19.539"/><use xlink:href="#20" y="21.71"/><use xlink:href="#11" y="26.052"/></svg><svg x="5848"><use xlink:href="#a"/><use xlink:href="#b" x="12.996" y="26.027"/><use xlink:href="#13"/><use xlink:href="#14" y="2.171"/><use xlink:href="#15" y="6.513"/><use xlink:href="#16" y="10.855"/><use xlink:href="#17" y="13.026"/><use xlink:href="#18" y="15.197"/><use xlink:href="#19" y="19.539"/><use xlink:href="#20" y="21.71"/><use xlink:href="#12" y="26.052"/></svg><svg x="6020"><use xlink:href="#a"/><use xlink:href="#b" x="13.996" y="26.027"/><use xlink:href="#13"/><use xlink:href="#14" y="2.171"/><use xlink:href="#15" y="6.513"/><use xlink:href="#16" y="10.855"/><use xlink:href="#17" y="13.026"/><use xlink:href="#18" y="15.197"/><use xlink:href="#19" y="19.539"/><use xlink:href="#20" y="21.71"/><use xlink:href="#12" y="26.052"/></svg><svg x="6192"><use xlink:href="#a"/><use xlink:href="#b" x="14.996" y="26.027"/><use xlink:href="#13"/><use xlink:href="#14" y="2.171"/><use xlink:href="#15" y="6.513"/><use xlink:href="#16" y="10.855"/><use xlink:href="#17" y="13.026"/><use xlink:href="#18" y="15.197"/><use xlink:href="#19" y="19.539"/><use xlink:href="#20" y="21.71"/><text y="27.722" class="c">▶</text><text x="2.004" y="27.722" class="c">helm-impact</text><text x="14.028" y="27.722" class="c">e</text></svg><svg x="6364"><use xlink:href="#a"/><use xlink:href="#b" x="15.996" y="26.027"/><use xlink:href="#13"/><use xlink:href="#14" y="2.171"/><use xlink:href="#15" y="6.513"/><use xlink:href="#16" y="10.855"/><use xlink:href="#17" y="13.026"/><use xlink:href="#18" y="15.197"/><use xlink:href="#19" y="19.539"/><use xlink:href="#20" y="21.71"/><text y="27.722" class="c">▶</text><text x="2.004" y="27.722" class="c">helm-impact</text><text x="14.028" y="27.722" class="c">ex</text></svg><svg x="6536"><use xlink:href="#a"/><use xlink:href="#b" x="16.996" y="26.027"/><use xlink:href="#13"/><use xlink:href="#14" y="2.171"/><use xlink:href="#15" y="6.513"/><use xlink:href="#16" y="10.855"/><use xlink:href="#17" y="13.026"/><use xlink:href="#18" y="15.197"/><use xlink:href="#19" y="19.539"/><use xlink:href="#20" y="21.71"/><text y="27.722" class="c">▶</text><text x="2.004" y="27.722" class="c">helm-impact</text><text x="14.028" y="27.722" class="c">exa</text></svg><svg x="6708"><use xlink:href="#a"/><use xlink:href="#b" x="17.996" y="26.027"/><use xlink:href="#13"/><use xlink:href="#14" y="2.171"/><use xlink:href="#15" y="6.513"/><use xlink:href="#16" y="10.855"/><use xlink:href="#17" y="13.026"/><use xlink:href="#18" y="15.197"/><use xlink:href="#19" y="19.539"/><use xlink:href="#20" y="21.71"/><text y="27.722" class="c">▶</text><text x="2.004" y="27.722" class="c">helm-impact</text><text x="14.028" y="27.722" class="c">exam</text></svg><svg x="6880"><use xlink:href="#a"/><use xlink:href="#b" x="18.996" y="26.027"/><use xlink:href="#13"/><use xlink:href="#14" y="2.171"/><use xlink:href="#15" y="6.513"/><use xlink:href="#16" y="10.855"/><use xlink:href="#17" y="13.026"/><use xlink:href="#18" y="15.197"/><use xlink:href="#19" y="19.539"/><use xlink:href="#20" y="21.71"/><text y="27.722" class="c">▶</text><text x="2.004" y="27.722" class="c">helm-impact</text><text x="14.028" y="27.722" class="c">examp</text></svg><svg x="7052"><use xlink:href="#a"/><use xlink:href="#b" x="19.996" y="26.027"/><use xlink:href="#13"/><use xlink:href="#14" y="2.171"/><use xlink:href="#15" y="6.513"/><use xlink:href="#16" y="10.855"/><use xlink:href="#17" y="13.026"/><use xlink:href="#18" y="15.197"/><use xlink:href="#19" y="19.539"/><use xlink:href="#20" y="21.71"/><text y="27.722" class="c">▶</text><text x="2.004" y="27.722" class="c">helm-impact</text><text x="14.028" y="27.722" class="c">exampl</text></svg><svg x="7224"><use xlink:href="#a"/><use xlink:href="#b" x="20.996" y="26.027"/><use xlink:href="#13"/><use xlink:href="#14" y="2.171"/><use xlink:href="#15" y="6.513"/><use xlink:href="#16" y="10.855"/><use xlink:href="#17" y="13.026"/><use xlink:href="#18" y="15.197"/><use xlink:href="#19" y="19.539"/><use xlink:href="#20" y="21.71"/><text y="27.722" class="c">▶</text><text x="2.004" y="27.722" class="c">helm-impact</text><text x="14.028" y="27.722" class="c">example</text></svg><svg x="7396"><use xlink:href="#a"/><use xlink:href="#b" x="21.996" y="26.027"/><use xlink:href="#13"/><use xlink:href="#14" y="2.171"/><use xlink:href="#15" y="6.513"/><use xlink:href="#16" y="10.855"/><use xlink:href="#17" y="13.026"/><use xlink:href="#18" y="15.197"/><use xlink:href="#19" y="19.539"/><use xlink:href="#20" y="21.71"/><text y="27.722" class="c">▶</text><text x="2.004" y="27.722" class="c">helm-impact</text><text x="14.028" y="27.722" class="c">examples</text></svg><svg x="7568"><use xlink:href="#a"/><use xlink:href="#b" x="22.996" y="26.027"/><use xlink:href="#13"/><use xlink:href="#14" y="2.171"/><use xlink:href="#15" y="6.513"/><use xlink:href="#16" y="10.855"/><use xlink:href="#17" y="13.026"/><use xlink:href="#18" y="15.197"/><use xlink:href="#19" y="19.539"/><use xlink:href="#20" y="21.71"/><text y="27.722" class="c">▶</text><text x="2.004" y="27.722" class="c">helm-impact</text><text x="14.028" y="27.722" class="c">examples/</text></svg><svg x="7740"><use xlink:href="#a"/><use xlink:href="#b" x="23.996" y="26.027"/><use xlink:href="#13"/><use xlink:href="#14" y="2.171"/><use xlink:href="#15" y="6.513"/><use xlink:href="#16" y="10.855"/><use xlink:href="#17" y="13.026"/><use xlink:href="#18" y="15.197"/><use xlink:href="#19" y="19.539"/><use xlink:href="#20" y="21.71"/><text y="27.722" class="c">▶</text><text x="2.004" y="27.722" class="c">helm-impact</text><text x="14.028" y="27.722" class="c">examples/v</text></svg><svg x="7912"><use xlink:href="#a"/><use xlink:href="#b" x="24.996" y="26.027"/><use xlink:href="#13"/><use xlink:href="#14" y="2.171"/><use xlink:href="#15" y="6.513"/><use xlink:href="#16" y="10.855"/><use xlink:href="#17" y="13.026"/><use xlink:href="#18" y="15.197"/><use xlink:href="#19" y="19.539"/><use xlink:href="#20" y="21.71"/><text y="27.722" class="c">▶</text><text x="2.004" y="27.722" class="c">helm-impact</text><text x="14.028" y="27.722" class="c">examples/v1</text></svg><svg x="8084"><use xlink:href="#a"/><use xlink:href="#b" x="25.996" y="26.027"/><use xlink:href="#13"/><use xlink:href="#14" y="2.171"/><use xlink:href="#15" y="6.513"/><use xlink:href="#16" y="10.855"/><use xlink:href="#17" y="13.026"/><use xlink:href="#18" y="15.197"/><use xlink:href="#19" y="19.539"/><use xlink:href="#20" y="21.71"/><text y="27.722" class="c">▶</text><text x="2.004" y="27.722" class="c">helm-impact</text><text x="14.028" y="27.722" class="c">examples/v1.</text></svg><svg x="8256"><use xlink:href="#a"/><use xlink:href="#b" x="26.996" y="26.027"/><use xlink:href="#13"/><use xlink:href="#14" y="2.171"/><use xlink:href="#15" y="6.513"/><use xlink:href="#16" y="10.855"/><use xlink:href="#17" y="13.026"/><use xlink:href="#18" y="15.197"/><use xlink:href="#19" y="19.539"/><use xlink:href="#20" y="21.71"/><text y="27.722" class="c">▶</text><text x="2.004" y="27.722" class="c">helm-impact</text><text x="14.028" y="27.722" class="c">examples/v1.y</text></svg><svg x="8428"><use xlink:href="#a"/><use xlink:href="#b" x="27.996" y="26.027"/><use xlink:href="#13"/><use xlink:href="#14" y="2.171"/><use xlink:href="#15" y="6.513"/><use xlink:href="#16" y="10.855"/><use xlink:href="#17" y="13.026"/><use xlink:href="#18" y="15.197"/><use xlink:href="#19" y="19.539"/><use xlink:href="#20" y="21.71"/><text y="27.722" class="c">▶</text><text x="2.004" y="27.722" class="c">helm-impact</text><text x="14.028" y="27.722" class="c">examples/v1.ya</text></svg><svg x="8600"><use xlink:href="#a"/><use xlink:href="#b" x="28.996" y="26.027"/><use xlink:href="#13"/><use xlink:href="#14" y="2.171"/><use xlink:href="#15" y="6.513"/><use xlink:href="#16" y="10.855"/><use xlink:href="#17" y="13.026"/><use xlink:href="#18" y="15.197"/><use xlink:href="#19" y="19.539"/><use xlink:href="#20" y="21.71"/><text y="27.722" class="c">▶</text><text x="2.004" y="27.722" class="c">helm-impact</text><text x="14.028" y="27.722" class="c">examples/v1.yam</text></svg><svg x="8772"><use xlink:href="#a"/><use xlink:href="#b" x="29.996" y="26.027"/><use xlink:href="#13"/><use xlink:href="#14" y="2.171"/><use xlink:href="#15" y="6.513"/><use xlink:href="#16" y="10.855"/><use xlink:href="#17" y="13.026"/><use xlink:href="#18" y="15.197"/><use xlink:href="#19" y="19.539"/><use xlink:href="#20" y="21.71"/><use xlink:href="#21" y="26.052"/></svg><svg x="8944"><use xlink:href="#a"/><use xlink:href="#b" x="30.996" y="26.027"/><use xlink:href="#13"/><use xlink:href="#14" y="2.171"/><use xlink:href="#15" y="6.513"/><use xlink:href="#16" y="10.855"/><use xlink:href="#17" y="13.026"/><use xlink:href="#18" y="15.197"/><use xlink:href="#19" y="19.539"/><use xlink:href="#20" y="21.71"/><use xlink:href="#21" y="26.052"/></svg><svg x="9116"><use xlink:href="#a"/><use xlink:href="#b" x="31.996" y="26.027"/><use xlink:href="#13"/><use xlink:href="#14" y="2.171"/><use xlink:href="#15" y="6.513"/><use xlink:href="#16" y="10.855"/><use xlink:href="#17" y="13.026"/><use xlink:href="#18" y="15.197"/><use xlink:href="#19" y="19.539"/><use xlink:href="#20" y="21.71"/><text y="27.722" class="c">▶</text><text x="2.004" y="27.722" class="c">helm-impact</text><text x="14.028" y="27.722" class="c">examples/v1.yaml</text><text x="31.062" y="27.722" class="c">e</text></svg><svg x="9288"><use xlink:href="#a"/><use xlink:href="#b" x="32.996" y="26.027"/><use xlink:href="#13"/><use xlink:href="#14" y="2.171"/><use xlink:href="#15" y="6.513"/><use xlink:href="#16" y="10.855"/><use xlink:href="#17" y="13.026"/><use xlink:href="#18" y="15.197"/><use xlink:href="#19" y="19.539"/><use xlink:href="#20" y="21.71"/><text y="27.722" class="c">▶</text><text x="2.004" y="27.722" class="c">helm-impact</text><text x="14.028" y="27.722" class="c">examples/v1.yaml</text><text x="31.062" y="27.722" class="c">ex</text></svg><svg x="9460"><use xlink:href="#a"/><use xlink:href="#b" x="33.996" y="26.027"/><use xlink:href="#13"/><use xlink:href="#14" y="2.171"/><use xlink:href="#15" y="6.513"/><use xlink:href="#16" y="10.855"/><use xlink:href="#17" y="13.026"/><use xlink:href="#18" y="15.197"/><use xlink:href="#19" y="19.539"/><use xlink:href="#20" y="21.71"/><text y="27.722" class="c">▶</text><text x="2.004" y="27.722" class="c">helm-impact</text><text x="14.028" y="27.722" class="c">examples/v1.yaml</text><text x="31.062" y="27.722" class="c">exa</text></svg><svg x="9632"><use xlink:href="#a"/><use xlink:href="#b" x="34.996" y="26.027"/><use xlink:href="#13"/><use xlink:href="#14" y="2.171"/><use xlink:href="#15" y="6.513"/><use xlink:href="#16" y="10.855"/><use xlink:href="#17" y="13.026"/><use xlink:href="#18" y="15.197"/><use xlink:href="#19" y="19.539"/><use xlink:href="#20" y="21.71"/><text y="27.722" class="c">▶</text><text x="2.004" y="27.722" class="c">helm-impact</text><text x="14.028" y="27.722" class="c">examples/v1.yaml</text><text x="31.062" y="27.722" class="c">exam</text></svg><svg x="9804"><use xlink:href="#a"/><use xlink:href="#b" x="35.996" y="26.027"/><use xlink:href="#13"/><use xlink:href="#14" y="2.171"/><use xlink:href="#15" y="6.513"/><use xlink:href="#16" y="10.855"/><use xlink:href="#17" y="13.026"/><use xlink:href="#18" y="15.197"/><use xlink:href="#19" y="19.539"/><use xlink:href="#20" y="21.71"/><text y="27.722" class="c">▶</text><text x="2.004" y="27.722" class="c">helm-impact</text><text x="14.028" y="27.722" class="c">examples/v1.yaml</text><text x="31.062" y="27.722" class="c">examp</text></svg><svg x="9976"><use xlink:href="#a"/><use xlink:href="#b" x="36.996" y="26.027"/><use xlink:href="#13"/><use xlink:href="#14" y="2.171"/><use xlink:href="#15" y="6.513"/><use xlink:href="#16" y="10.855"/><use xlink:href="#17" y="13.026"/><use xlink:href="#18" y="15.197"/><use xlink:href="#19" y="19.539"/><use xlink:href="#20" y="21.71"/><text y="27.722" class="c">▶</text><text x="2.004" y="27.722" class="c">helm-impact</text><text x="14.028" y="27.722" class="c">examples/v1.yaml</text><text x="31.062" y="27.722" class="c">exampl</text></svg><svg x="10148"><use xlink:href="#a"/><use xlink:href="#b" x="37.996" y="26.027"/><use xlink:href="#13"/><use xlink:href="#14" y="2.171"/><use xlink:href="#15" y="6.513"/><use xlink:href="#16" y="10.855"/><use xlink:href="#17" y="13.026"/><use xlink:href="#18" y="15.197"/><use xlink:href="#19" y="19.539"/><use xlink:href="#20" y="21.71"/><text y="27.722" class="c">▶</text><text x="2.004" y="27.722" class="c">helm-impact</text><text x="14.028" y="27.722" class="c">examples/v1.yaml</text><text x="31.062" y="27.722" class="c">example</text></svg><svg x="10320"><use xlink:href="#a"/><use xlink:href="#b" x="38.996" y="26.027"/><use xlink:href="#13"/><use xlink:href="#14" y="2.171"/><use xlink:href="#15" y="6.513"/><use xlink:href="#16" y="10.855"/><use xlink:href="#17" y="13.026"/><use xlink:href="#18" y="15.197"/><use xlink:href="#19" y="19.539"/><use xlink:href="#20" y="21.71"/><text y="27.722" class="c">▶</text><text x="2.004" y="27.722" class="c">helm-impact</text><text x="14.028" y="27.722" class="c">examples/v1.yaml</text><text x="31.062" y="27.722" class="c">examples</text></svg><svg x="10492"><use xlink:href="#a"/><use xlink:href="#b" x="39.996" y="26.027"/><use xlink:href="#13"/><use xlink:href="#14" y="2.171"/><use xlink:href="#15" y="6.513"/><use xlink:href="#16" y="10.855"/><use xlink:href="#17" y="13.026"/><use xlink:href="#18" y="15.197"/><use xlink:href="#19" y="19.539"/><use xlink:href="#20" y="21.71"/><text y="27.722" class="c">▶</text><text x="2.004" y="27.722" class="c">helm-impact</text><text x="14.028" y="27.722" class="c">examples/v1.yaml</text><text x="31.062" y="27.722" class="c">examples/</text></svg><svg x="10664"><use xlink:href="#a"/><use xlink:href="#b" x="40.996" y="26.027"/><use xlink:href="#13"/><use xlink:href="#14" y="2.171"/><use xlink:href="#15" y="6.513"/><use xlink:href="#16" y="10.855"/><use xlink:href="#17" y="13.026"/><use xlink:href="#18" y="15.197"/><use xlink:href="#19" y="19.539"/><use xlink:href="#20" y="21.71"/><text y="27.722" class="c">▶</text><text x="2.004" y="27.722" class="c">helm-impact</text><text x="14.028" y="27.722" class="c">examples/v1.yaml</text><text x="31.062" y="27.722" class="c">examples/v</text></svg><svg x="10836"><use xlink:href="#a"/><use xlink:href="#b" x="41.996" y="26.027"/><use xlink:href="#13"/><use xlink:href="#14" y="2.171"/><use xlink:href="#15" y="6.513"/><use xlink:href="#16" y="10.855"/><use xlink:href="#17" y="13.026"/><use xlink:href="#18" y="15.197"/><use xlink:href="#19" y="19.539"/><use xlink:href="#20" y="21.71"/><text y="27.722" class="c">▶</text><text x="2.004" y="27.722" class="c">helm-impact</text><text x="14.028" y="27.722" class="c">examples/v1.yaml</text><text x="31.062" y="27.722" class="c">examples/v2</text></svg><svg x="11008"><use xlink:href="#a"/><use xlink:href="#b" x="42.996" y="26.027"/><use xlink:href="#13"/><use xlink:href="#14" y="2.171"/><use xlink:href="#15" y="6.513"/><use xlink:href="#16" y="10.855"/><use xlink:href="#17" y="13.026"/><use xlink:href="#18" y="15.197"/><use xlink:href="#19" y="19.539"/><use xlink:href="#20" y="21.71"/><text y="27.722" class="c">▶</text><text x="2.004" y="27.722" class="c">helm-impact</text><text x="14.028" y="27.722" class="c">examples/v1.yaml</text><text x="31.062" y="27.722" class="c">examples/v2.</text></svg><svg x="11180"><use xlink:href="#a"/><use xlink:href="#b" x="43.996" y="26.027"/><use xlink:href="#13"/><use xlink:href="#14" y="2.171"/><use xlink:href="#15" y="6.513"/><use xlink:href="#16" y="10.855"/><use xlink:href="#17" y="13.026"/><use xlink:href="#18" y="15.197"/><use xlink:href="#19" y="19.539"/><use xlink:href="#20" y="21.71"/><text y="27.722" class="c">▶</text><text x="2.004" y="27.722" class="c">helm-impact</text><text x="14.028" y="27.722" class="c">examples/v1.yaml</text><text x="31.062" y="27.722" class="c">examples/v2.y</text></svg><svg x="11352"><use xlink:href="#a"/><use xlink:href="#b" x="44.996" y="26.027"/><use xlink:href="#13"/><use xlink:href="#14" y="2.171"/><use xlink:href="#15" y="6.513"/><use xlink:href="#16" y="10.855"/><use xlink:href="#17" y="13.026"/><use xlink:href="#18" y="15.197"/><use xlink:href="#19" y="19.539"/><use xlink:href="#20" y="21.71"/><text y="27.722" class="c">▶</text><text x="2.004" y="27.722" class="c">helm-impact</text><text x="14.028" y="27.722" class="c">examples/v1.yaml</text><text x="31.062" y="27.722" class="c">examples/v2.ya</text></svg><svg x="11524"><use xlink:href="#a"/><use xlink:href="#b" x="45.996" y="26.027"/><use xlink:href="#13"/><use xlink:href="#14" y="2.171"/><use xlink:href="#15" y="6.513"/><use xlink:href="#16" y="10.855"/><use xlink:href="#17" y="13.026"/><use xlink:href="#18" y="15.197"/><use xlink:href="#19" y="19.539"/><use xlink:href="#20" y="21.71"/><text y="27.722" class="c">▶</text><text x="2.004" y="27.722" class="c">helm-impact</text><text x="14.028" y="27.722" class="c">examples/v1.yaml</text><text x="31.062" y="27.722" class="c">examples/v2.yam</text></svg><svg x="11696"><use xlink:href="#a"/><use xlink:href="#b" x="46.996" y="26.027"/><use xlink:href="#13"/><use xlink:href="#14" y="2.171"/><use xlink:href="#15" y="6.513"/><use xlink:href="#16" y="10.855"/><use xlink:href="#17" y="13.026"/><use xlink:href="#18" y="15.197"/><use xlink:href="#19" y="19.539"/><use xlink:href="#20" y="21.71"/><use xlink:href="#22" y="26.052"/></svg><svg x="11868"><use xlink:href="#a"/><use xlink:href="#b" x="-.004" y="28.198"/><use xlink:href="#13"/><use xlink:href="#14" y="2.171"/><use xlink:href="#15" y="6.513"/><use xlink:href="#16" y="10.855"/><use xlink:href="#17" y="13.026"/><use xlink:href="#18" y="15.197"/><use xlink:href="#19" y="19.539"/><use xlink:href="#20" y="21.71"/><use xlink:href="#22" y="26.052"/></svg><svg x="12040"><use xlink:href="#a"/><use xlink:href="#b" x="57.996" y="32.54"/><use xlink:href="#13"/><use xlink:href="#14" y="2.171"/><use xlink:href="#15" y="6.513"/><use xlink:href="#16" y="10.855"/><use xlink:href="#17" y="13.026"/><use xlink:href="#18" y="15.197"/><use xlink:href="#19" y="19.539"/><use xlink:href="#20" y="21.71"/><use xlink:href="#22" y="26.052"/><use xlink:href="#23" y="28.223"/><use xlink:href="#24" y="30.394"/><text y="34.235" class="c">┡━━━━━━━━━━━━━━━━━━━╇━━━━━━━━━━━━━━━━━━━━━━━━━━━━━━━━━━━━━</text></svg><svg x="12212"><use xlink:href="#a"/><use xlink:href="#b" x="97.996" y="39.053"/><use xlink:href="#13"/><use xlink:href="#14" y="2.171"/><use xlink:href="#15" y="6.513"/><use xlink:href="#16" y="10.855"/><use xlink:href="#17" y="13.026"/><use xlink:href="#18" y="15.197"/><use xlink:href="#19" y="19.539"/><use xlink:href="#20" y="21.71"/><use xlink:href="#22" y="26.052"/><use xlink:href="#23" y="28.223"/><use xlink:href="#24" y="30.394"/><use xlink:href="#25" y="32.565"/><use xlink:href="#26" y="34.736"/><use xlink:href="#27" y="36.907"/><text y="40.748" class="c">├───────────────────┼────────────────────────────────────────┼──────────┼─────────────────┼───────</text></svg><svg x="12384"><use xlink:href="#a"/><use xlink:href="#b" x="75.996" y="43.395"/><use xlink:href="#15" y="2.171"/><use xlink:href="#16" y="6.513"/><use xlink:href="#17" y="8.684"/><use xlink:href="#18" y="10.855"/><use xlink:href="#19" y="15.197"/><use xlink:href="#20" y="17.368"/><use xlink:href="#22" y="21.71"/><use xlink:href="#23" y="23.881"/><use xlink:href="#24" y="26.052"/><use xlink:href="#25" y="28.223"/><use xlink:href="#26" y="30.394"/><use xlink:href="#27" y="32.565"/><use xlink:href="#28" y="34.736"/><use xlink:href="#29" y="36.907"/><use xlink:href="#30" y="39.078"/><use xlink:href="#31" y="41.249"/><text y="45.09" class="c">├───────────────────┼────────────────────────────────────────┼──────────┼───</text></svg><svg x="12556"><use xlink:href="#a"/><use xlink:href="#b" x="115.996" y="43.395"/><use xlink:href="#16"/><use xlink:href="#17" y="2.171"/><use xlink:href="#18" y="4.342"/><use xlink:href="#19" y="8.684"/><use xlink:href="#20" y="10.855"/><use xlink:href="#22" y="15.197"/><use xlink:href="#23" y="17.368"/><use xlink:href="#24" y="19.539"/><use xlink:href="#25" y="21.71"/><use xlink:href="#26" y="23.881"/><use xlink:href="#27" y="26.052"/><use xlink:href="#28" y="28.223"/><use xlink:href="#29" y="30.394"/><use xlink:href="#30" y="32.565"/><use xlink:href="#31" y="34.736"/><use xlink:href="#28" y="36.907"/><use xlink:href="#32" y="39.078"/><use xlink:href="#33" y="41.249"/><text y="45.09" class="c">├───────────────────┼────────────────────────────────────────┼──────────┼─────────────────┼─────────────────────────</text></svg><svg x="12728"><use xlink:href="#a"/><use xlink:href="#b" x="93.996" y="43.395"/><use xlink:href="#19"/><use xlink:href="#20" y="2.171"/><use xlink:href="#22" y="6.513"/><use xlink:href="#23" y="8.684"/><use xlink:href="#24" y="10.855"/><use xlink:href="#25" y="13.026"/><use xlink:href="#26" y="15.197"/><use xlink:href="#27" y="17.368"/><use xlink:href="#28" y="19.539"/><use xlink:href="#29" y="21.71"/><use xlink:href="#30" y="23.881"/><use xlink:href="#31" y="26.052"/><use xlink:href="#28" y="28.223"/><use xlink:href="#32" y="30.394"/><use xlink:href="#33" y="32.565"/><use xlink:href="#28" y="34.736"/><use xlink:href="#34" y="36.907"/><use xlink:href="#35" y="39.078"/><use xlink:href="#36" y="41.249"/><text y="45.09" class="c">└───────────────────┴────────────────────────────────────────┴──────────┴─────────────────┴───</text></svg><svg x="12900"><use xlink:href="#a"/><use xlink:href="#b" x="-.004" y="43.395"/><use xlink:href="#20"/><use xlink:href="#22" y="4.342"/><use xlink:href="#23" y="6.513"/><use xlink:href="#24" y="8.684"/><use xlink:href="#25" y="10.855"/><use xlink:href="#26" y="13.026"/><use xlink:href="#27" y="15.197"/><use xlink:href="#28" y="17.368"/><use xlink:href="#29" y="19.539"/><use xlink:href="#30" y="21.71"/><use xlink:href="#31" y="23.881"/><use xlink:href="#28" y="26.052"/><use xlink:href="#32" y="28.223"/><use xlink:href="#33" y="30.394"/><use xlink:href="#28" y="32.565"/><use xlink:href="#34" y="34.736"/><use xlink:href="#35" y="36.907"/><use xlink:href="#36" y="39.078"/><use xlink:href="#37" y="41.249"/></svg><svg x="13072"><use xlink:href="#a"/><use xlink:href="#b" x="-.004" y="43.395"/><use xlink:href="#22" y="2.171"/><use xlink:href="#23" y="4.342"/><use xlink:href="#24" y="6.513"/><use xlink:href="#25" y="8.684"/><use xlink:href="#26" y="10.855"/><use xlink:href="#27" y="13.026"/><use xlink:href="#28" y="15.197"/><use xlink:href="#29" y="17.368"/><use xlink:href="#30" y="19.539"/><use xlink:href="#31" y="21.71"/><use xlink:href="#28" y="23.881"/><use xlink:href="#32" y="26.052"/><use xlink:href="#33" y="28.223"/><use xlink:href="#28" y="30.394"/><use xlink:href="#34" y="32.565"/><use xlink:href="#35" y="34.736"/><use xlink:href="#36" y="36.907"/><use xlink:href="#37" y="39.078"/></svg><svg x="13244"><use xlink:href="#a"/><use xlink:href="#b" x="1.996" y="43.395"/><use xlink:href="#22" y="2.171"/><use xlink:href="#23" y="4.342"/><use xlink:href="#24" y="6.513"/><use xlink:href="#25" y="8.684"/><use xlink:href="#26" y="10.855"/><use xlink:href="#27" y="13.026"/><use xlink:href="#28" y="15.197"/><use xlink:href="#29" y="17.368"/><use xlink:href="#30" y="19.539"/><use xlink:href="#31" y="21.71"/><use xlink:href="#28" y="23.881"/><use xlink:href="#32" y="26.052"/><use xlink:href="#33" y="28.223"/><use xlink:href="#28" y="30.394"/><use xlink:href="#34" y="32.565"/><use xlink:href="#35" y="34.736"/><use xlink:href="#36" y="36.907"/><use xlink:href="#37" y="39.078"/><use xlink:href="#1" y="43.42"/></svg></svg></g></g></svg></svg>